<mxfile host="Electron" agent="Mozilla/5.0 (Windows NT 10.0; Win64; x64) AppleWebKit/537.36 (KHTML, like Gecko) draw.io/24.7.5 Chrome/126.0.6478.183 Electron/31.3.0 Safari/537.36" version="24.7.5">
  <diagram name="Page-1" id="MkB1meyT6w8QIq_tDhiH">
    <mxGraphModel dx="1304" dy="1204" grid="0" gridSize="10" guides="1" tooltips="1" connect="1" arrows="1" fold="1" page="0" pageScale="1" pageWidth="850" pageHeight="1100" math="0" shadow="0">
      <root>
        <mxCell id="0" />
        <mxCell id="1" parent="0" />
        <mxCell id="FOSeOk8iiJpguLzdHGcU-1" value="user" style="shape=table;startSize=30;container=1;collapsible=1;childLayout=tableLayout;fixedRows=1;rowLines=0;fontStyle=1;align=center;resizeLast=1;html=1;rounded=1;" vertex="1" parent="1">
          <mxGeometry x="168" y="-134" width="268.75" height="210" as="geometry" />
        </mxCell>
        <mxCell id="FOSeOk8iiJpguLzdHGcU-2" value="" style="shape=tableRow;horizontal=0;startSize=0;swimlaneHead=0;swimlaneBody=0;fillColor=none;collapsible=0;dropTarget=0;points=[[0,0.5],[1,0.5]];portConstraint=eastwest;top=0;left=0;right=0;bottom=1;" vertex="1" parent="FOSeOk8iiJpguLzdHGcU-1">
          <mxGeometry y="30" width="268.75" height="30" as="geometry" />
        </mxCell>
        <mxCell id="FOSeOk8iiJpguLzdHGcU-3" value="PK" style="shape=partialRectangle;connectable=0;fillColor=none;top=0;left=0;bottom=0;right=0;fontStyle=1;overflow=hidden;whiteSpace=wrap;html=1;" vertex="1" parent="FOSeOk8iiJpguLzdHGcU-2">
          <mxGeometry width="68.75" height="30" as="geometry">
            <mxRectangle width="68.75" height="30" as="alternateBounds" />
          </mxGeometry>
        </mxCell>
        <mxCell id="FOSeOk8iiJpguLzdHGcU-4" value="user_id" style="shape=partialRectangle;connectable=0;fillColor=none;top=0;left=0;bottom=0;right=0;align=left;spacingLeft=6;fontStyle=5;overflow=hidden;whiteSpace=wrap;html=1;" vertex="1" parent="FOSeOk8iiJpguLzdHGcU-2">
          <mxGeometry x="68.75" width="200" height="30" as="geometry">
            <mxRectangle width="200" height="30" as="alternateBounds" />
          </mxGeometry>
        </mxCell>
        <mxCell id="FOSeOk8iiJpguLzdHGcU-5" value="" style="shape=tableRow;horizontal=0;startSize=0;swimlaneHead=0;swimlaneBody=0;fillColor=none;collapsible=0;dropTarget=0;points=[[0,0.5],[1,0.5]];portConstraint=eastwest;top=0;left=0;right=0;bottom=0;" vertex="1" parent="FOSeOk8iiJpguLzdHGcU-1">
          <mxGeometry y="60" width="268.75" height="30" as="geometry" />
        </mxCell>
        <mxCell id="FOSeOk8iiJpguLzdHGcU-6" value="UNIQUE" style="shape=partialRectangle;connectable=0;fillColor=none;top=0;left=0;bottom=0;right=0;editable=1;overflow=hidden;whiteSpace=wrap;html=1;" vertex="1" parent="FOSeOk8iiJpguLzdHGcU-5">
          <mxGeometry width="68.75" height="30" as="geometry">
            <mxRectangle width="68.75" height="30" as="alternateBounds" />
          </mxGeometry>
        </mxCell>
        <mxCell id="FOSeOk8iiJpguLzdHGcU-7" value="email&amp;nbsp; &lt;b&gt;VARCHAR(100)&lt;/b&gt;" style="shape=partialRectangle;connectable=0;fillColor=none;top=0;left=0;bottom=0;right=0;align=left;spacingLeft=6;overflow=hidden;whiteSpace=wrap;html=1;" vertex="1" parent="FOSeOk8iiJpguLzdHGcU-5">
          <mxGeometry x="68.75" width="200" height="30" as="geometry">
            <mxRectangle width="200" height="30" as="alternateBounds" />
          </mxGeometry>
        </mxCell>
        <mxCell id="FOSeOk8iiJpguLzdHGcU-8" value="" style="shape=tableRow;horizontal=0;startSize=0;swimlaneHead=0;swimlaneBody=0;fillColor=none;collapsible=0;dropTarget=0;points=[[0,0.5],[1,0.5]];portConstraint=eastwest;top=0;left=0;right=0;bottom=0;" vertex="1" parent="FOSeOk8iiJpguLzdHGcU-1">
          <mxGeometry y="90" width="268.75" height="30" as="geometry" />
        </mxCell>
        <mxCell id="FOSeOk8iiJpguLzdHGcU-9" value="UNIQUE" style="shape=partialRectangle;connectable=0;fillColor=none;top=0;left=0;bottom=0;right=0;editable=1;overflow=hidden;whiteSpace=wrap;html=1;" vertex="1" parent="FOSeOk8iiJpguLzdHGcU-8">
          <mxGeometry width="68.75" height="30" as="geometry">
            <mxRectangle width="68.75" height="30" as="alternateBounds" />
          </mxGeometry>
        </mxCell>
        <mxCell id="FOSeOk8iiJpguLzdHGcU-10" value="mobile_no&amp;nbsp;&lt;b&gt;VARCHAR(100)&lt;/b&gt;" style="shape=partialRectangle;connectable=0;fillColor=none;top=0;left=0;bottom=0;right=0;align=left;spacingLeft=6;overflow=hidden;whiteSpace=wrap;html=1;" vertex="1" parent="FOSeOk8iiJpguLzdHGcU-8">
          <mxGeometry x="68.75" width="200" height="30" as="geometry">
            <mxRectangle width="200" height="30" as="alternateBounds" />
          </mxGeometry>
        </mxCell>
        <mxCell id="FOSeOk8iiJpguLzdHGcU-14" style="shape=tableRow;horizontal=0;startSize=0;swimlaneHead=0;swimlaneBody=0;fillColor=none;collapsible=0;dropTarget=0;points=[[0,0.5],[1,0.5]];portConstraint=eastwest;top=0;left=0;right=0;bottom=0;" vertex="1" parent="FOSeOk8iiJpguLzdHGcU-1">
          <mxGeometry y="120" width="268.75" height="30" as="geometry" />
        </mxCell>
        <mxCell id="FOSeOk8iiJpguLzdHGcU-15" style="shape=partialRectangle;connectable=0;fillColor=none;top=0;left=0;bottom=0;right=0;editable=1;overflow=hidden;whiteSpace=wrap;html=1;" vertex="1" parent="FOSeOk8iiJpguLzdHGcU-14">
          <mxGeometry width="68.75" height="30" as="geometry">
            <mxRectangle width="68.75" height="30" as="alternateBounds" />
          </mxGeometry>
        </mxCell>
        <mxCell id="FOSeOk8iiJpguLzdHGcU-16" value="password&amp;nbsp;&lt;b&gt;VARCHAR(100)&lt;/b&gt;" style="shape=partialRectangle;connectable=0;fillColor=none;top=0;left=0;bottom=0;right=0;align=left;spacingLeft=6;overflow=hidden;whiteSpace=wrap;html=1;" vertex="1" parent="FOSeOk8iiJpguLzdHGcU-14">
          <mxGeometry x="68.75" width="200" height="30" as="geometry">
            <mxRectangle width="200" height="30" as="alternateBounds" />
          </mxGeometry>
        </mxCell>
        <mxCell id="FOSeOk8iiJpguLzdHGcU-17" style="shape=tableRow;horizontal=0;startSize=0;swimlaneHead=0;swimlaneBody=0;fillColor=none;collapsible=0;dropTarget=0;points=[[0,0.5],[1,0.5]];portConstraint=eastwest;top=0;left=0;right=0;bottom=0;" vertex="1" parent="FOSeOk8iiJpguLzdHGcU-1">
          <mxGeometry y="150" width="268.75" height="30" as="geometry" />
        </mxCell>
        <mxCell id="FOSeOk8iiJpguLzdHGcU-18" style="shape=partialRectangle;connectable=0;fillColor=none;top=0;left=0;bottom=0;right=0;editable=1;overflow=hidden;whiteSpace=wrap;html=1;" vertex="1" parent="FOSeOk8iiJpguLzdHGcU-17">
          <mxGeometry width="68.75" height="30" as="geometry">
            <mxRectangle width="68.75" height="30" as="alternateBounds" />
          </mxGeometry>
        </mxCell>
        <mxCell id="FOSeOk8iiJpguLzdHGcU-19" value="created_on&amp;nbsp; &lt;b&gt;DATE&lt;/b&gt;" style="shape=partialRectangle;connectable=0;fillColor=none;top=0;left=0;bottom=0;right=0;align=left;spacingLeft=6;overflow=hidden;whiteSpace=wrap;html=1;" vertex="1" parent="FOSeOk8iiJpguLzdHGcU-17">
          <mxGeometry x="68.75" width="200" height="30" as="geometry">
            <mxRectangle width="200" height="30" as="alternateBounds" />
          </mxGeometry>
        </mxCell>
        <mxCell id="FOSeOk8iiJpguLzdHGcU-11" value="" style="shape=tableRow;horizontal=0;startSize=0;swimlaneHead=0;swimlaneBody=0;fillColor=none;collapsible=0;dropTarget=0;points=[[0,0.5],[1,0.5]];portConstraint=eastwest;top=0;left=0;right=0;bottom=0;" vertex="1" parent="FOSeOk8iiJpguLzdHGcU-1">
          <mxGeometry y="180" width="268.75" height="30" as="geometry" />
        </mxCell>
        <mxCell id="FOSeOk8iiJpguLzdHGcU-12" value="" style="shape=partialRectangle;connectable=0;fillColor=none;top=0;left=0;bottom=0;right=0;editable=1;overflow=hidden;whiteSpace=wrap;html=1;" vertex="1" parent="FOSeOk8iiJpguLzdHGcU-11">
          <mxGeometry width="68.75" height="30" as="geometry">
            <mxRectangle width="68.75" height="30" as="alternateBounds" />
          </mxGeometry>
        </mxCell>
        <mxCell id="FOSeOk8iiJpguLzdHGcU-13" value="user_token &lt;b&gt;VARCHAR(255)&lt;/b&gt;" style="shape=partialRectangle;connectable=0;fillColor=none;top=0;left=0;bottom=0;right=0;align=left;spacingLeft=6;overflow=hidden;whiteSpace=wrap;html=1;" vertex="1" parent="FOSeOk8iiJpguLzdHGcU-11">
          <mxGeometry x="68.75" width="200" height="30" as="geometry">
            <mxRectangle width="200" height="30" as="alternateBounds" />
          </mxGeometry>
        </mxCell>
        <mxCell id="FOSeOk8iiJpguLzdHGcU-23" value="account" style="shape=table;startSize=30;container=1;collapsible=1;childLayout=tableLayout;fixedRows=1;rowLines=0;fontStyle=1;align=center;resizeLast=1;html=1;rounded=1;" vertex="1" parent="1">
          <mxGeometry x="684" y="223" width="306.51282051282044" height="398.6821678446493" as="geometry" />
        </mxCell>
        <mxCell id="FOSeOk8iiJpguLzdHGcU-24" value="" style="shape=tableRow;horizontal=0;startSize=0;swimlaneHead=0;swimlaneBody=0;fillColor=none;collapsible=0;dropTarget=0;points=[[0,0.5],[1,0.5]];portConstraint=eastwest;top=0;left=0;right=0;bottom=1;" vertex="1" parent="FOSeOk8iiJpguLzdHGcU-23">
          <mxGeometry y="30" width="306.51282051282044" height="98" as="geometry" />
        </mxCell>
        <mxCell id="FOSeOk8iiJpguLzdHGcU-25" value="PK" style="shape=partialRectangle;connectable=0;fillColor=none;top=0;left=0;bottom=0;right=0;fontStyle=1;overflow=hidden;whiteSpace=wrap;html=1;" vertex="1" parent="FOSeOk8iiJpguLzdHGcU-24">
          <mxGeometry width="47.04347826086985" height="98" as="geometry">
            <mxRectangle width="47.04347826086985" height="98" as="alternateBounds" />
          </mxGeometry>
        </mxCell>
        <mxCell id="FOSeOk8iiJpguLzdHGcU-26" value="account_id" style="shape=partialRectangle;connectable=0;fillColor=none;top=0;left=0;bottom=0;right=0;align=left;spacingLeft=6;fontStyle=5;overflow=hidden;whiteSpace=wrap;html=1;" vertex="1" parent="FOSeOk8iiJpguLzdHGcU-24">
          <mxGeometry x="47.04347826086985" width="259.4693422519506" height="98" as="geometry">
            <mxRectangle width="259.4693422519506" height="98" as="alternateBounds" />
          </mxGeometry>
        </mxCell>
        <mxCell id="FOSeOk8iiJpguLzdHGcU-234" style="shape=tableRow;horizontal=0;startSize=0;swimlaneHead=0;swimlaneBody=0;fillColor=none;collapsible=0;dropTarget=0;points=[[0,0.5],[1,0.5]];portConstraint=eastwest;top=0;left=0;right=0;bottom=0;" vertex="1" parent="FOSeOk8iiJpguLzdHGcU-23">
          <mxGeometry y="128" width="306.51282051282044" height="30" as="geometry" />
        </mxCell>
        <mxCell id="FOSeOk8iiJpguLzdHGcU-235" value="&lt;b&gt;FK&lt;/b&gt;" style="shape=partialRectangle;connectable=0;fillColor=none;top=0;left=0;bottom=0;right=0;editable=1;overflow=hidden;whiteSpace=wrap;html=1;" vertex="1" parent="FOSeOk8iiJpguLzdHGcU-234">
          <mxGeometry width="47.04347826086985" height="30" as="geometry">
            <mxRectangle width="47.04347826086985" height="30" as="alternateBounds" />
          </mxGeometry>
        </mxCell>
        <mxCell id="FOSeOk8iiJpguLzdHGcU-236" value="user_id" style="shape=partialRectangle;connectable=0;fillColor=none;top=0;left=0;bottom=0;right=0;align=left;spacingLeft=6;overflow=hidden;whiteSpace=wrap;html=1;" vertex="1" parent="FOSeOk8iiJpguLzdHGcU-234">
          <mxGeometry x="47.04347826086985" width="259.4693422519506" height="30" as="geometry">
            <mxRectangle width="259.4693422519506" height="30" as="alternateBounds" />
          </mxGeometry>
        </mxCell>
        <mxCell id="FOSeOk8iiJpguLzdHGcU-27" value="" style="shape=tableRow;horizontal=0;startSize=0;swimlaneHead=0;swimlaneBody=0;fillColor=none;collapsible=0;dropTarget=0;points=[[0,0.5],[1,0.5]];portConstraint=eastwest;top=0;left=0;right=0;bottom=0;" vertex="1" parent="FOSeOk8iiJpguLzdHGcU-23">
          <mxGeometry y="158" width="306.51282051282044" height="30" as="geometry" />
        </mxCell>
        <mxCell id="FOSeOk8iiJpguLzdHGcU-28" value="" style="shape=partialRectangle;connectable=0;fillColor=none;top=0;left=0;bottom=0;right=0;editable=1;overflow=hidden;whiteSpace=wrap;html=1;" vertex="1" parent="FOSeOk8iiJpguLzdHGcU-27">
          <mxGeometry width="47.04347826086985" height="30" as="geometry">
            <mxRectangle width="47.04347826086985" height="30" as="alternateBounds" />
          </mxGeometry>
        </mxCell>
        <mxCell id="FOSeOk8iiJpguLzdHGcU-29" value="first_name &lt;b&gt;VARCHAR(50)&lt;/b&gt;" style="shape=partialRectangle;connectable=0;fillColor=none;top=0;left=0;bottom=0;right=0;align=left;spacingLeft=6;overflow=hidden;whiteSpace=wrap;html=1;" vertex="1" parent="FOSeOk8iiJpguLzdHGcU-27">
          <mxGeometry x="47.04347826086985" width="259.4693422519506" height="30" as="geometry">
            <mxRectangle width="259.4693422519506" height="30" as="alternateBounds" />
          </mxGeometry>
        </mxCell>
        <mxCell id="FOSeOk8iiJpguLzdHGcU-40" style="shape=tableRow;horizontal=0;startSize=0;swimlaneHead=0;swimlaneBody=0;fillColor=none;collapsible=0;dropTarget=0;points=[[0,0.5],[1,0.5]];portConstraint=eastwest;top=0;left=0;right=0;bottom=0;" vertex="1" parent="FOSeOk8iiJpguLzdHGcU-23">
          <mxGeometry y="188" width="306.51282051282044" height="30" as="geometry" />
        </mxCell>
        <mxCell id="FOSeOk8iiJpguLzdHGcU-41" style="shape=partialRectangle;connectable=0;fillColor=none;top=0;left=0;bottom=0;right=0;editable=1;overflow=hidden;whiteSpace=wrap;html=1;" vertex="1" parent="FOSeOk8iiJpguLzdHGcU-40">
          <mxGeometry width="47.04347826086985" height="30" as="geometry">
            <mxRectangle width="47.04347826086985" height="30" as="alternateBounds" />
          </mxGeometry>
        </mxCell>
        <mxCell id="FOSeOk8iiJpguLzdHGcU-42" value="middle_name &lt;b&gt;VARCHAR(50)&lt;/b&gt;" style="shape=partialRectangle;connectable=0;fillColor=none;top=0;left=0;bottom=0;right=0;align=left;spacingLeft=6;overflow=hidden;whiteSpace=wrap;html=1;" vertex="1" parent="FOSeOk8iiJpguLzdHGcU-40">
          <mxGeometry x="47.04347826086985" width="259.4693422519506" height="30" as="geometry">
            <mxRectangle width="259.4693422519506" height="30" as="alternateBounds" />
          </mxGeometry>
        </mxCell>
        <mxCell id="FOSeOk8iiJpguLzdHGcU-30" value="" style="shape=tableRow;horizontal=0;startSize=0;swimlaneHead=0;swimlaneBody=0;fillColor=none;collapsible=0;dropTarget=0;points=[[0,0.5],[1,0.5]];portConstraint=eastwest;top=0;left=0;right=0;bottom=0;" vertex="1" parent="FOSeOk8iiJpguLzdHGcU-23">
          <mxGeometry y="218" width="306.51282051282044" height="30" as="geometry" />
        </mxCell>
        <mxCell id="FOSeOk8iiJpguLzdHGcU-31" value="" style="shape=partialRectangle;connectable=0;fillColor=none;top=0;left=0;bottom=0;right=0;editable=1;overflow=hidden;whiteSpace=wrap;html=1;" vertex="1" parent="FOSeOk8iiJpguLzdHGcU-30">
          <mxGeometry width="47.04347826086985" height="30" as="geometry">
            <mxRectangle width="47.04347826086985" height="30" as="alternateBounds" />
          </mxGeometry>
        </mxCell>
        <mxCell id="FOSeOk8iiJpguLzdHGcU-32" value="last_name&amp;nbsp;&amp;nbsp;&lt;b&gt;VARCHAR(50)&lt;/b&gt;" style="shape=partialRectangle;connectable=0;fillColor=none;top=0;left=0;bottom=0;right=0;align=left;spacingLeft=6;overflow=hidden;whiteSpace=wrap;html=1;" vertex="1" parent="FOSeOk8iiJpguLzdHGcU-30">
          <mxGeometry x="47.04347826086985" width="259.4693422519506" height="30" as="geometry">
            <mxRectangle width="259.4693422519506" height="30" as="alternateBounds" />
          </mxGeometry>
        </mxCell>
        <mxCell id="FOSeOk8iiJpguLzdHGcU-33" value="" style="shape=tableRow;horizontal=0;startSize=0;swimlaneHead=0;swimlaneBody=0;fillColor=none;collapsible=0;dropTarget=0;points=[[0,0.5],[1,0.5]];portConstraint=eastwest;top=0;left=0;right=0;bottom=0;" vertex="1" parent="FOSeOk8iiJpguLzdHGcU-23">
          <mxGeometry y="248" width="306.51282051282044" height="30" as="geometry" />
        </mxCell>
        <mxCell id="FOSeOk8iiJpguLzdHGcU-34" value="" style="shape=partialRectangle;connectable=0;fillColor=none;top=0;left=0;bottom=0;right=0;editable=1;overflow=hidden;whiteSpace=wrap;html=1;" vertex="1" parent="FOSeOk8iiJpguLzdHGcU-33">
          <mxGeometry width="47.04347826086985" height="30" as="geometry">
            <mxRectangle width="47.04347826086985" height="30" as="alternateBounds" />
          </mxGeometry>
        </mxCell>
        <mxCell id="FOSeOk8iiJpguLzdHGcU-35" value="nick_name&amp;nbsp;&lt;b&gt;VARCHAR(50)&lt;/b&gt;" style="shape=partialRectangle;connectable=0;fillColor=none;top=0;left=0;bottom=0;right=0;align=left;spacingLeft=6;overflow=hidden;whiteSpace=wrap;html=1;" vertex="1" parent="FOSeOk8iiJpguLzdHGcU-33">
          <mxGeometry x="47.04347826086985" width="259.4693422519506" height="30" as="geometry">
            <mxRectangle width="259.4693422519506" height="30" as="alternateBounds" />
          </mxGeometry>
        </mxCell>
        <mxCell id="FOSeOk8iiJpguLzdHGcU-37" style="shape=tableRow;horizontal=0;startSize=0;swimlaneHead=0;swimlaneBody=0;fillColor=none;collapsible=0;dropTarget=0;points=[[0,0.5],[1,0.5]];portConstraint=eastwest;top=0;left=0;right=0;bottom=0;" vertex="1" parent="FOSeOk8iiJpguLzdHGcU-23">
          <mxGeometry y="278" width="306.51282051282044" height="30" as="geometry" />
        </mxCell>
        <mxCell id="FOSeOk8iiJpguLzdHGcU-38" style="shape=partialRectangle;connectable=0;fillColor=none;top=0;left=0;bottom=0;right=0;editable=1;overflow=hidden;whiteSpace=wrap;html=1;" vertex="1" parent="FOSeOk8iiJpguLzdHGcU-37">
          <mxGeometry width="47.04347826086985" height="30" as="geometry">
            <mxRectangle width="47.04347826086985" height="30" as="alternateBounds" />
          </mxGeometry>
        </mxCell>
        <mxCell id="FOSeOk8iiJpguLzdHGcU-39" value="dob &lt;b&gt;DATE&lt;/b&gt;" style="shape=partialRectangle;connectable=0;fillColor=none;top=0;left=0;bottom=0;right=0;align=left;spacingLeft=6;overflow=hidden;whiteSpace=wrap;html=1;" vertex="1" parent="FOSeOk8iiJpguLzdHGcU-37">
          <mxGeometry x="47.04347826086985" width="259.4693422519506" height="30" as="geometry">
            <mxRectangle width="259.4693422519506" height="30" as="alternateBounds" />
          </mxGeometry>
        </mxCell>
        <mxCell id="FOSeOk8iiJpguLzdHGcU-49" style="shape=tableRow;horizontal=0;startSize=0;swimlaneHead=0;swimlaneBody=0;fillColor=none;collapsible=0;dropTarget=0;points=[[0,0.5],[1,0.5]];portConstraint=eastwest;top=0;left=0;right=0;bottom=0;" vertex="1" parent="FOSeOk8iiJpguLzdHGcU-23">
          <mxGeometry y="308" width="306.51282051282044" height="30" as="geometry" />
        </mxCell>
        <mxCell id="FOSeOk8iiJpguLzdHGcU-50" style="shape=partialRectangle;connectable=0;fillColor=none;top=0;left=0;bottom=0;right=0;editable=1;overflow=hidden;whiteSpace=wrap;html=1;" vertex="1" parent="FOSeOk8iiJpguLzdHGcU-49">
          <mxGeometry width="47.04347826086985" height="30" as="geometry">
            <mxRectangle width="47.04347826086985" height="30" as="alternateBounds" />
          </mxGeometry>
        </mxCell>
        <mxCell id="FOSeOk8iiJpguLzdHGcU-51" value="bio &lt;b&gt;VARCHAR(1000)&lt;/b&gt;" style="shape=partialRectangle;connectable=0;fillColor=none;top=0;left=0;bottom=0;right=0;align=left;spacingLeft=6;overflow=hidden;whiteSpace=wrap;html=1;" vertex="1" parent="FOSeOk8iiJpguLzdHGcU-49">
          <mxGeometry x="47.04347826086985" width="259.4693422519506" height="30" as="geometry">
            <mxRectangle width="259.4693422519506" height="30" as="alternateBounds" />
          </mxGeometry>
        </mxCell>
        <mxCell id="FOSeOk8iiJpguLzdHGcU-265" style="shape=tableRow;horizontal=0;startSize=0;swimlaneHead=0;swimlaneBody=0;fillColor=none;collapsible=0;dropTarget=0;points=[[0,0.5],[1,0.5]];portConstraint=eastwest;top=0;left=0;right=0;bottom=0;" vertex="1" parent="FOSeOk8iiJpguLzdHGcU-23">
          <mxGeometry y="338" width="306.51282051282044" height="30" as="geometry" />
        </mxCell>
        <mxCell id="FOSeOk8iiJpguLzdHGcU-266" style="shape=partialRectangle;connectable=0;fillColor=none;top=0;left=0;bottom=0;right=0;editable=1;overflow=hidden;whiteSpace=wrap;html=1;" vertex="1" parent="FOSeOk8iiJpguLzdHGcU-265">
          <mxGeometry width="47.04347826086985" height="30" as="geometry">
            <mxRectangle width="47.04347826086985" height="30" as="alternateBounds" />
          </mxGeometry>
        </mxCell>
        <mxCell id="FOSeOk8iiJpguLzdHGcU-267" value="gender &lt;b&gt;ENUM(MALE, FEMALE, OTHER)&lt;/b&gt;" style="shape=partialRectangle;connectable=0;fillColor=none;top=0;left=0;bottom=0;right=0;align=left;spacingLeft=6;overflow=hidden;whiteSpace=wrap;html=1;" vertex="1" parent="FOSeOk8iiJpguLzdHGcU-265">
          <mxGeometry x="47.04347826086985" width="259.4693422519506" height="30" as="geometry">
            <mxRectangle width="259.4693422519506" height="30" as="alternateBounds" />
          </mxGeometry>
        </mxCell>
        <mxCell id="FOSeOk8iiJpguLzdHGcU-52" style="shape=tableRow;horizontal=0;startSize=0;swimlaneHead=0;swimlaneBody=0;fillColor=none;collapsible=0;dropTarget=0;points=[[0,0.5],[1,0.5]];portConstraint=eastwest;top=0;left=0;right=0;bottom=0;" vertex="1" parent="FOSeOk8iiJpguLzdHGcU-23">
          <mxGeometry y="368" width="306.51282051282044" height="30" as="geometry" />
        </mxCell>
        <mxCell id="FOSeOk8iiJpguLzdHGcU-53" value="&lt;b&gt;FK&lt;/b&gt;" style="shape=partialRectangle;connectable=0;fillColor=none;top=0;left=0;bottom=0;right=0;editable=1;overflow=hidden;whiteSpace=wrap;html=1;" vertex="1" parent="FOSeOk8iiJpguLzdHGcU-52">
          <mxGeometry width="47.04347826086985" height="30" as="geometry">
            <mxRectangle width="47.04347826086985" height="30" as="alternateBounds" />
          </mxGeometry>
        </mxCell>
        <mxCell id="FOSeOk8iiJpguLzdHGcU-54" value="profile_picture&amp;nbsp;" style="shape=partialRectangle;connectable=0;fillColor=none;top=0;left=0;bottom=0;right=0;align=left;spacingLeft=6;overflow=hidden;whiteSpace=wrap;html=1;" vertex="1" parent="FOSeOk8iiJpguLzdHGcU-52">
          <mxGeometry x="47.04347826086985" width="259.4693422519506" height="30" as="geometry">
            <mxRectangle width="259.4693422519506" height="30" as="alternateBounds" />
          </mxGeometry>
        </mxCell>
        <mxCell id="FOSeOk8iiJpguLzdHGcU-36" style="edgeStyle=orthogonalEdgeStyle;rounded=0;orthogonalLoop=1;jettySize=auto;html=1;endArrow=ERoneToMany;endFill=0;startArrow=ERmandOne;startFill=0;" edge="1" parent="1" source="FOSeOk8iiJpguLzdHGcU-2">
          <mxGeometry relative="1" as="geometry">
            <mxPoint x="684" y="280" as="targetPoint" />
            <Array as="points">
              <mxPoint x="560" y="-89" />
              <mxPoint x="560" y="279" />
              <mxPoint x="684" y="279" />
            </Array>
          </mxGeometry>
        </mxCell>
        <mxCell id="FOSeOk8iiJpguLzdHGcU-80" value="media" style="shape=table;startSize=30;container=1;collapsible=1;childLayout=tableLayout;fixedRows=1;rowLines=0;fontStyle=1;align=center;resizeLast=1;html=1;rounded=1;" vertex="1" parent="1">
          <mxGeometry x="1053" y="681" width="245.28571428571445" height="238" as="geometry">
            <mxRectangle x="1059" y="287" width="68" height="30" as="alternateBounds" />
          </mxGeometry>
        </mxCell>
        <mxCell id="FOSeOk8iiJpguLzdHGcU-81" value="" style="shape=tableRow;horizontal=0;startSize=0;swimlaneHead=0;swimlaneBody=0;fillColor=none;collapsible=0;dropTarget=0;points=[[0,0.5],[1,0.5]];portConstraint=eastwest;top=0;left=0;right=0;bottom=1;" vertex="1" parent="FOSeOk8iiJpguLzdHGcU-80">
          <mxGeometry y="30" width="245.28571428571445" height="58" as="geometry" />
        </mxCell>
        <mxCell id="FOSeOk8iiJpguLzdHGcU-82" value="PK" style="shape=partialRectangle;connectable=0;fillColor=none;top=0;left=0;bottom=0;right=0;fontStyle=1;overflow=hidden;whiteSpace=wrap;html=1;" vertex="1" parent="FOSeOk8iiJpguLzdHGcU-81">
          <mxGeometry width="45.28571428571422" height="58" as="geometry">
            <mxRectangle width="45.28571428571422" height="58" as="alternateBounds" />
          </mxGeometry>
        </mxCell>
        <mxCell id="FOSeOk8iiJpguLzdHGcU-83" value="media_id" style="shape=partialRectangle;connectable=0;fillColor=none;top=0;left=0;bottom=0;right=0;align=left;spacingLeft=6;fontStyle=5;overflow=hidden;whiteSpace=wrap;html=1;" vertex="1" parent="FOSeOk8iiJpguLzdHGcU-81">
          <mxGeometry x="45.28571428571422" width="200.00000000000023" height="58" as="geometry">
            <mxRectangle width="200.00000000000023" height="58" as="alternateBounds" />
          </mxGeometry>
        </mxCell>
        <mxCell id="FOSeOk8iiJpguLzdHGcU-84" value="" style="shape=tableRow;horizontal=0;startSize=0;swimlaneHead=0;swimlaneBody=0;fillColor=none;collapsible=0;dropTarget=0;points=[[0,0.5],[1,0.5]];portConstraint=eastwest;top=0;left=0;right=0;bottom=0;" vertex="1" parent="FOSeOk8iiJpguLzdHGcU-80">
          <mxGeometry y="88" width="245.28571428571445" height="30" as="geometry" />
        </mxCell>
        <mxCell id="FOSeOk8iiJpguLzdHGcU-85" value="" style="shape=partialRectangle;connectable=0;fillColor=none;top=0;left=0;bottom=0;right=0;editable=1;overflow=hidden;whiteSpace=wrap;html=1;" vertex="1" parent="FOSeOk8iiJpguLzdHGcU-84">
          <mxGeometry width="45.28571428571422" height="30" as="geometry">
            <mxRectangle width="45.28571428571422" height="30" as="alternateBounds" />
          </mxGeometry>
        </mxCell>
        <mxCell id="FOSeOk8iiJpguLzdHGcU-86" value="media_type &lt;b&gt;VARCHAR(20)&lt;/b&gt;" style="shape=partialRectangle;connectable=0;fillColor=none;top=0;left=0;bottom=0;right=0;align=left;spacingLeft=6;overflow=hidden;whiteSpace=wrap;html=1;" vertex="1" parent="FOSeOk8iiJpguLzdHGcU-84">
          <mxGeometry x="45.28571428571422" width="200.00000000000023" height="30" as="geometry">
            <mxRectangle width="200.00000000000023" height="30" as="alternateBounds" />
          </mxGeometry>
        </mxCell>
        <mxCell id="FOSeOk8iiJpguLzdHGcU-87" value="" style="shape=tableRow;horizontal=0;startSize=0;swimlaneHead=0;swimlaneBody=0;fillColor=none;collapsible=0;dropTarget=0;points=[[0,0.5],[1,0.5]];portConstraint=eastwest;top=0;left=0;right=0;bottom=0;" vertex="1" parent="FOSeOk8iiJpguLzdHGcU-80">
          <mxGeometry y="118" width="245.28571428571445" height="30" as="geometry" />
        </mxCell>
        <mxCell id="FOSeOk8iiJpguLzdHGcU-88" value="" style="shape=partialRectangle;connectable=0;fillColor=none;top=0;left=0;bottom=0;right=0;editable=1;overflow=hidden;whiteSpace=wrap;html=1;" vertex="1" parent="FOSeOk8iiJpguLzdHGcU-87">
          <mxGeometry width="45.28571428571422" height="30" as="geometry">
            <mxRectangle width="45.28571428571422" height="30" as="alternateBounds" />
          </mxGeometry>
        </mxCell>
        <mxCell id="FOSeOk8iiJpguLzdHGcU-89" value="media_title&amp;nbsp;&lt;b&gt;VARCHAR(50)&lt;/b&gt;" style="shape=partialRectangle;connectable=0;fillColor=none;top=0;left=0;bottom=0;right=0;align=left;spacingLeft=6;overflow=hidden;whiteSpace=wrap;html=1;" vertex="1" parent="FOSeOk8iiJpguLzdHGcU-87">
          <mxGeometry x="45.28571428571422" width="200.00000000000023" height="30" as="geometry">
            <mxRectangle width="200.00000000000023" height="30" as="alternateBounds" />
          </mxGeometry>
        </mxCell>
        <mxCell id="FOSeOk8iiJpguLzdHGcU-90" value="" style="shape=tableRow;horizontal=0;startSize=0;swimlaneHead=0;swimlaneBody=0;fillColor=none;collapsible=0;dropTarget=0;points=[[0,0.5],[1,0.5]];portConstraint=eastwest;top=0;left=0;right=0;bottom=0;" vertex="1" parent="FOSeOk8iiJpguLzdHGcU-80">
          <mxGeometry y="148" width="245.28571428571445" height="30" as="geometry" />
        </mxCell>
        <mxCell id="FOSeOk8iiJpguLzdHGcU-91" value="" style="shape=partialRectangle;connectable=0;fillColor=none;top=0;left=0;bottom=0;right=0;editable=1;overflow=hidden;whiteSpace=wrap;html=1;" vertex="1" parent="FOSeOk8iiJpguLzdHGcU-90">
          <mxGeometry width="45.28571428571422" height="30" as="geometry">
            <mxRectangle width="45.28571428571422" height="30" as="alternateBounds" />
          </mxGeometry>
        </mxCell>
        <mxCell id="FOSeOk8iiJpguLzdHGcU-92" value="uploaded_on &lt;b&gt;DATE&lt;/b&gt;" style="shape=partialRectangle;connectable=0;fillColor=none;top=0;left=0;bottom=0;right=0;align=left;spacingLeft=6;overflow=hidden;whiteSpace=wrap;html=1;" vertex="1" parent="FOSeOk8iiJpguLzdHGcU-90">
          <mxGeometry x="45.28571428571422" width="200.00000000000023" height="30" as="geometry">
            <mxRectangle width="200.00000000000023" height="30" as="alternateBounds" />
          </mxGeometry>
        </mxCell>
        <mxCell id="FOSeOk8iiJpguLzdHGcU-93" style="shape=tableRow;horizontal=0;startSize=0;swimlaneHead=0;swimlaneBody=0;fillColor=none;collapsible=0;dropTarget=0;points=[[0,0.5],[1,0.5]];portConstraint=eastwest;top=0;left=0;right=0;bottom=0;" vertex="1" parent="FOSeOk8iiJpguLzdHGcU-80">
          <mxGeometry y="178" width="245.28571428571445" height="30" as="geometry" />
        </mxCell>
        <mxCell id="FOSeOk8iiJpguLzdHGcU-94" style="shape=partialRectangle;connectable=0;fillColor=none;top=0;left=0;bottom=0;right=0;editable=1;overflow=hidden;whiteSpace=wrap;html=1;" vertex="1" parent="FOSeOk8iiJpguLzdHGcU-93">
          <mxGeometry width="45.28571428571422" height="30" as="geometry">
            <mxRectangle width="45.28571428571422" height="30" as="alternateBounds" />
          </mxGeometry>
        </mxCell>
        <mxCell id="FOSeOk8iiJpguLzdHGcU-95" value="media_extension&amp;nbsp;&lt;b&gt;VARCHAR(10)&lt;/b&gt;" style="shape=partialRectangle;connectable=0;fillColor=none;top=0;left=0;bottom=0;right=0;align=left;spacingLeft=6;overflow=hidden;whiteSpace=wrap;html=1;" vertex="1" parent="FOSeOk8iiJpguLzdHGcU-93">
          <mxGeometry x="45.28571428571422" width="200.00000000000023" height="30" as="geometry">
            <mxRectangle width="200.00000000000023" height="30" as="alternateBounds" />
          </mxGeometry>
        </mxCell>
        <mxCell id="FOSeOk8iiJpguLzdHGcU-110" style="shape=tableRow;horizontal=0;startSize=0;swimlaneHead=0;swimlaneBody=0;fillColor=none;collapsible=0;dropTarget=0;points=[[0,0.5],[1,0.5]];portConstraint=eastwest;top=0;left=0;right=0;bottom=0;" vertex="1" parent="FOSeOk8iiJpguLzdHGcU-80">
          <mxGeometry y="208" width="245.28571428571445" height="30" as="geometry" />
        </mxCell>
        <mxCell id="FOSeOk8iiJpguLzdHGcU-111" value="&lt;b&gt;FK&lt;/b&gt;" style="shape=partialRectangle;connectable=0;fillColor=none;top=0;left=0;bottom=0;right=0;editable=1;overflow=hidden;whiteSpace=wrap;html=1;" vertex="1" parent="FOSeOk8iiJpguLzdHGcU-110">
          <mxGeometry width="45.28571428571422" height="30" as="geometry">
            <mxRectangle width="45.28571428571422" height="30" as="alternateBounds" />
          </mxGeometry>
        </mxCell>
        <mxCell id="FOSeOk8iiJpguLzdHGcU-112" value="post_id" style="shape=partialRectangle;connectable=0;fillColor=none;top=0;left=0;bottom=0;right=0;align=left;spacingLeft=6;overflow=hidden;whiteSpace=wrap;html=1;" vertex="1" parent="FOSeOk8iiJpguLzdHGcU-110">
          <mxGeometry x="45.28571428571422" width="200.00000000000023" height="30" as="geometry">
            <mxRectangle width="200.00000000000023" height="30" as="alternateBounds" />
          </mxGeometry>
        </mxCell>
        <mxCell id="FOSeOk8iiJpguLzdHGcU-97" value="post" style="shape=table;startSize=30;container=1;collapsible=1;childLayout=tableLayout;fixedRows=1;rowLines=0;fontStyle=1;align=center;resizeLast=1;html=1;rounded=1;" vertex="1" parent="1">
          <mxGeometry x="375" y="634" width="180" height="197.3651745555793" as="geometry" />
        </mxCell>
        <mxCell id="FOSeOk8iiJpguLzdHGcU-98" value="" style="shape=tableRow;horizontal=0;startSize=0;swimlaneHead=0;swimlaneBody=0;fillColor=none;collapsible=0;dropTarget=0;points=[[0,0.5],[1,0.5]];portConstraint=eastwest;top=0;left=0;right=0;bottom=1;" vertex="1" parent="FOSeOk8iiJpguLzdHGcU-97">
          <mxGeometry y="30" width="180" height="77" as="geometry" />
        </mxCell>
        <mxCell id="FOSeOk8iiJpguLzdHGcU-99" value="PK" style="shape=partialRectangle;connectable=0;fillColor=none;top=0;left=0;bottom=0;right=0;fontStyle=1;overflow=hidden;whiteSpace=wrap;html=1;" vertex="1" parent="FOSeOk8iiJpguLzdHGcU-98">
          <mxGeometry width="30" height="77" as="geometry">
            <mxRectangle width="30" height="77" as="alternateBounds" />
          </mxGeometry>
        </mxCell>
        <mxCell id="FOSeOk8iiJpguLzdHGcU-100" value="post_id" style="shape=partialRectangle;connectable=0;fillColor=none;top=0;left=0;bottom=0;right=0;align=left;spacingLeft=6;fontStyle=5;overflow=hidden;whiteSpace=wrap;html=1;" vertex="1" parent="FOSeOk8iiJpguLzdHGcU-98">
          <mxGeometry x="30" width="150" height="77" as="geometry">
            <mxRectangle width="150" height="77" as="alternateBounds" />
          </mxGeometry>
        </mxCell>
        <mxCell id="FOSeOk8iiJpguLzdHGcU-101" value="" style="shape=tableRow;horizontal=0;startSize=0;swimlaneHead=0;swimlaneBody=0;fillColor=none;collapsible=0;dropTarget=0;points=[[0,0.5],[1,0.5]];portConstraint=eastwest;top=0;left=0;right=0;bottom=0;" vertex="1" parent="FOSeOk8iiJpguLzdHGcU-97">
          <mxGeometry y="107" width="180" height="30" as="geometry" />
        </mxCell>
        <mxCell id="FOSeOk8iiJpguLzdHGcU-102" value="" style="shape=partialRectangle;connectable=0;fillColor=none;top=0;left=0;bottom=0;right=0;editable=1;overflow=hidden;whiteSpace=wrap;html=1;" vertex="1" parent="FOSeOk8iiJpguLzdHGcU-101">
          <mxGeometry width="30" height="30" as="geometry">
            <mxRectangle width="30" height="30" as="alternateBounds" />
          </mxGeometry>
        </mxCell>
        <mxCell id="FOSeOk8iiJpguLzdHGcU-103" value="post_caption" style="shape=partialRectangle;connectable=0;fillColor=none;top=0;left=0;bottom=0;right=0;align=left;spacingLeft=6;overflow=hidden;whiteSpace=wrap;html=1;" vertex="1" parent="FOSeOk8iiJpguLzdHGcU-101">
          <mxGeometry x="30" width="150" height="30" as="geometry">
            <mxRectangle width="150" height="30" as="alternateBounds" />
          </mxGeometry>
        </mxCell>
        <mxCell id="FOSeOk8iiJpguLzdHGcU-104" value="" style="shape=tableRow;horizontal=0;startSize=0;swimlaneHead=0;swimlaneBody=0;fillColor=none;collapsible=0;dropTarget=0;points=[[0,0.5],[1,0.5]];portConstraint=eastwest;top=0;left=0;right=0;bottom=0;" vertex="1" parent="FOSeOk8iiJpguLzdHGcU-97">
          <mxGeometry y="137" width="180" height="30" as="geometry" />
        </mxCell>
        <mxCell id="FOSeOk8iiJpguLzdHGcU-105" value="" style="shape=partialRectangle;connectable=0;fillColor=none;top=0;left=0;bottom=0;right=0;editable=1;overflow=hidden;whiteSpace=wrap;html=1;" vertex="1" parent="FOSeOk8iiJpguLzdHGcU-104">
          <mxGeometry width="30" height="30" as="geometry">
            <mxRectangle width="30" height="30" as="alternateBounds" />
          </mxGeometry>
        </mxCell>
        <mxCell id="FOSeOk8iiJpguLzdHGcU-106" value="hash_tags" style="shape=partialRectangle;connectable=0;fillColor=none;top=0;left=0;bottom=0;right=0;align=left;spacingLeft=6;overflow=hidden;whiteSpace=wrap;html=1;" vertex="1" parent="FOSeOk8iiJpguLzdHGcU-104">
          <mxGeometry x="30" width="150" height="30" as="geometry">
            <mxRectangle width="150" height="30" as="alternateBounds" />
          </mxGeometry>
        </mxCell>
        <mxCell id="FOSeOk8iiJpguLzdHGcU-107" value="" style="shape=tableRow;horizontal=0;startSize=0;swimlaneHead=0;swimlaneBody=0;fillColor=none;collapsible=0;dropTarget=0;points=[[0,0.5],[1,0.5]];portConstraint=eastwest;top=0;left=0;right=0;bottom=0;" vertex="1" parent="FOSeOk8iiJpguLzdHGcU-97">
          <mxGeometry y="167" width="180" height="30" as="geometry" />
        </mxCell>
        <mxCell id="FOSeOk8iiJpguLzdHGcU-108" value="&lt;b&gt;FK&lt;/b&gt;" style="shape=partialRectangle;connectable=0;fillColor=none;top=0;left=0;bottom=0;right=0;editable=1;overflow=hidden;whiteSpace=wrap;html=1;" vertex="1" parent="FOSeOk8iiJpguLzdHGcU-107">
          <mxGeometry width="30" height="30" as="geometry">
            <mxRectangle width="30" height="30" as="alternateBounds" />
          </mxGeometry>
        </mxCell>
        <mxCell id="FOSeOk8iiJpguLzdHGcU-109" value="account_id" style="shape=partialRectangle;connectable=0;fillColor=none;top=0;left=0;bottom=0;right=0;align=left;spacingLeft=6;overflow=hidden;whiteSpace=wrap;html=1;" vertex="1" parent="FOSeOk8iiJpguLzdHGcU-107">
          <mxGeometry x="30" width="150" height="30" as="geometry">
            <mxRectangle width="150" height="30" as="alternateBounds" />
          </mxGeometry>
        </mxCell>
        <mxCell id="FOSeOk8iiJpguLzdHGcU-113" style="edgeStyle=orthogonalEdgeStyle;rounded=0;orthogonalLoop=1;jettySize=auto;html=1;entryX=0;entryY=0.5;entryDx=0;entryDy=0;endArrow=ERzeroToMany;endFill=0;startArrow=ERmandOne;startFill=0;" edge="1" parent="1" source="FOSeOk8iiJpguLzdHGcU-98" target="FOSeOk8iiJpguLzdHGcU-110">
          <mxGeometry relative="1" as="geometry">
            <Array as="points">
              <mxPoint x="757" y="702" />
              <mxPoint x="757" y="904" />
            </Array>
          </mxGeometry>
        </mxCell>
        <mxCell id="FOSeOk8iiJpguLzdHGcU-115" style="edgeStyle=orthogonalEdgeStyle;rounded=0;orthogonalLoop=1;jettySize=auto;html=1;startArrow=ERmandOne;startFill=0;endArrow=ERzeroToMany;endFill=0;entryX=0;entryY=0.5;entryDx=0;entryDy=0;" edge="1" parent="1" source="FOSeOk8iiJpguLzdHGcU-24" target="FOSeOk8iiJpguLzdHGcU-107">
          <mxGeometry relative="1" as="geometry">
            <mxPoint x="297" y="791" as="targetPoint" />
            <Array as="points">
              <mxPoint x="585" y="320" />
              <mxPoint x="585" y="394" />
              <mxPoint x="331" y="394" />
              <mxPoint x="331" y="816" />
            </Array>
          </mxGeometry>
        </mxCell>
        <mxCell id="FOSeOk8iiJpguLzdHGcU-118" value="comment" style="shape=table;startSize=30;container=1;collapsible=1;childLayout=tableLayout;fixedRows=1;rowLines=0;fontStyle=1;align=center;resizeLast=1;html=1;rounded=1;points=[[0,0,0,0,0],[0,0.25,0,0,0],[0,0.5,0,0,0],[0,0.75,0,0,0],[0,1,0,0,0],[0.25,0,0,0,0],[0.25,1,0,0,0],[0.5,0,0,0,0],[0.5,1,0,0,0],[0.75,0,0,0,0],[0.75,1,0,0,0],[1,0,0,0,0],[1,0.25,0,0,0],[1,0.5,0,0,0],[1,0.75,0,0,0],[1,1,0,0,0]];" vertex="1" parent="1">
          <mxGeometry x="323.77" y="1190" width="282.46808510638294" height="274.7112462006078" as="geometry" />
        </mxCell>
        <mxCell id="FOSeOk8iiJpguLzdHGcU-119" value="" style="shape=tableRow;horizontal=0;startSize=0;swimlaneHead=0;swimlaneBody=0;fillColor=none;collapsible=0;dropTarget=0;portConstraint=eastwest;top=0;left=0;right=0;bottom=1;" vertex="1" parent="FOSeOk8iiJpguLzdHGcU-118">
          <mxGeometry y="30" width="282.46808510638294" height="64" as="geometry" />
        </mxCell>
        <mxCell id="FOSeOk8iiJpguLzdHGcU-120" value="PK" style="shape=partialRectangle;connectable=0;fillColor=none;top=0;left=0;bottom=0;right=0;fontStyle=1;overflow=hidden;whiteSpace=wrap;html=1;" vertex="1" parent="FOSeOk8iiJpguLzdHGcU-119">
          <mxGeometry width="51.08510638297861" height="64" as="geometry">
            <mxRectangle width="51.08510638297861" height="64" as="alternateBounds" />
          </mxGeometry>
        </mxCell>
        <mxCell id="FOSeOk8iiJpguLzdHGcU-121" value="comment_id" style="shape=partialRectangle;connectable=0;fillColor=none;top=0;left=0;bottom=0;right=0;align=left;spacingLeft=6;fontStyle=5;overflow=hidden;whiteSpace=wrap;html=1;" vertex="1" parent="FOSeOk8iiJpguLzdHGcU-119">
          <mxGeometry x="51.08510638297861" width="231.38297872340434" height="64" as="geometry">
            <mxRectangle width="231.38297872340434" height="64" as="alternateBounds" />
          </mxGeometry>
        </mxCell>
        <mxCell id="FOSeOk8iiJpguLzdHGcU-122" value="" style="shape=tableRow;horizontal=0;startSize=0;swimlaneHead=0;swimlaneBody=0;fillColor=none;collapsible=0;dropTarget=0;points=[[0,0.5],[1,0.5]];portConstraint=eastwest;top=0;left=0;right=0;bottom=0;" vertex="1" parent="FOSeOk8iiJpguLzdHGcU-118">
          <mxGeometry y="94" width="282.46808510638294" height="30" as="geometry" />
        </mxCell>
        <mxCell id="FOSeOk8iiJpguLzdHGcU-123" value="" style="shape=partialRectangle;connectable=0;fillColor=none;top=0;left=0;bottom=0;right=0;editable=1;overflow=hidden;whiteSpace=wrap;html=1;" vertex="1" parent="FOSeOk8iiJpguLzdHGcU-122">
          <mxGeometry width="51.08510638297861" height="30" as="geometry">
            <mxRectangle width="51.08510638297861" height="30" as="alternateBounds" />
          </mxGeometry>
        </mxCell>
        <mxCell id="FOSeOk8iiJpguLzdHGcU-124" value="&lt;span style=&quot;text-align: center;&quot;&gt;comment_data&lt;/span&gt;&lt;b style=&quot;text-align: center;&quot;&gt; VARCHAR(10000)&lt;/b&gt;" style="shape=partialRectangle;connectable=0;fillColor=none;top=0;left=0;bottom=0;right=0;align=left;spacingLeft=6;overflow=hidden;whiteSpace=wrap;html=1;" vertex="1" parent="FOSeOk8iiJpguLzdHGcU-122">
          <mxGeometry x="51.08510638297861" width="231.38297872340434" height="30" as="geometry">
            <mxRectangle width="231.38297872340434" height="30" as="alternateBounds" />
          </mxGeometry>
        </mxCell>
        <mxCell id="FOSeOk8iiJpguLzdHGcU-219" style="shape=tableRow;horizontal=0;startSize=0;swimlaneHead=0;swimlaneBody=0;fillColor=none;collapsible=0;dropTarget=0;points=[[0,0.5],[1,0.5]];portConstraint=eastwest;top=0;left=0;right=0;bottom=0;" vertex="1" parent="FOSeOk8iiJpguLzdHGcU-118">
          <mxGeometry y="124" width="282.46808510638294" height="30" as="geometry" />
        </mxCell>
        <mxCell id="FOSeOk8iiJpguLzdHGcU-220" style="shape=partialRectangle;connectable=0;fillColor=none;top=0;left=0;bottom=0;right=0;editable=1;overflow=hidden;whiteSpace=wrap;html=1;" vertex="1" parent="FOSeOk8iiJpguLzdHGcU-219">
          <mxGeometry width="51.08510638297861" height="30" as="geometry">
            <mxRectangle width="51.08510638297861" height="30" as="alternateBounds" />
          </mxGeometry>
        </mxCell>
        <mxCell id="FOSeOk8iiJpguLzdHGcU-221" value="comment_on &lt;b&gt;DATE&lt;/b&gt;" style="shape=partialRectangle;connectable=0;fillColor=none;top=0;left=0;bottom=0;right=0;align=left;spacingLeft=6;overflow=hidden;whiteSpace=wrap;html=1;" vertex="1" parent="FOSeOk8iiJpguLzdHGcU-219">
          <mxGeometry x="51.08510638297861" width="231.38297872340434" height="30" as="geometry">
            <mxRectangle width="231.38297872340434" height="30" as="alternateBounds" />
          </mxGeometry>
        </mxCell>
        <mxCell id="FOSeOk8iiJpguLzdHGcU-148" style="shape=tableRow;horizontal=0;startSize=0;swimlaneHead=0;swimlaneBody=0;fillColor=none;collapsible=0;dropTarget=0;points=[[0,0.5],[1,0.5]];portConstraint=eastwest;top=0;left=0;right=0;bottom=0;" vertex="1" parent="FOSeOk8iiJpguLzdHGcU-118">
          <mxGeometry y="154" width="282.46808510638294" height="30" as="geometry" />
        </mxCell>
        <mxCell id="FOSeOk8iiJpguLzdHGcU-149" value="&lt;b&gt;FK&lt;/b&gt;" style="shape=partialRectangle;connectable=0;fillColor=none;top=0;left=0;bottom=0;right=0;editable=1;overflow=hidden;whiteSpace=wrap;html=1;" vertex="1" parent="FOSeOk8iiJpguLzdHGcU-148">
          <mxGeometry width="51.08510638297861" height="30" as="geometry">
            <mxRectangle width="51.08510638297861" height="30" as="alternateBounds" />
          </mxGeometry>
        </mxCell>
        <mxCell id="FOSeOk8iiJpguLzdHGcU-150" value="account_id" style="shape=partialRectangle;connectable=0;fillColor=none;top=0;left=0;bottom=0;right=0;align=left;spacingLeft=6;overflow=hidden;whiteSpace=wrap;html=1;" vertex="1" parent="FOSeOk8iiJpguLzdHGcU-148">
          <mxGeometry x="51.08510638297861" width="231.38297872340434" height="30" as="geometry">
            <mxRectangle width="231.38297872340434" height="30" as="alternateBounds" />
          </mxGeometry>
        </mxCell>
        <mxCell id="FOSeOk8iiJpguLzdHGcU-216" style="shape=tableRow;horizontal=0;startSize=0;swimlaneHead=0;swimlaneBody=0;fillColor=none;collapsible=0;dropTarget=0;points=[[0,0.5],[1,0.5]];portConstraint=eastwest;top=0;left=0;right=0;bottom=0;" vertex="1" parent="FOSeOk8iiJpguLzdHGcU-118">
          <mxGeometry y="184" width="282.46808510638294" height="30" as="geometry" />
        </mxCell>
        <mxCell id="FOSeOk8iiJpguLzdHGcU-217" value="&lt;b&gt;FK&lt;/b&gt;" style="shape=partialRectangle;connectable=0;fillColor=none;top=0;left=0;bottom=0;right=0;editable=1;overflow=hidden;whiteSpace=wrap;html=1;" vertex="1" parent="FOSeOk8iiJpguLzdHGcU-216">
          <mxGeometry width="51.08510638297861" height="30" as="geometry">
            <mxRectangle width="51.08510638297861" height="30" as="alternateBounds" />
          </mxGeometry>
        </mxCell>
        <mxCell id="FOSeOk8iiJpguLzdHGcU-218" value="media_id" style="shape=partialRectangle;connectable=0;fillColor=none;top=0;left=0;bottom=0;right=0;align=left;spacingLeft=6;overflow=hidden;whiteSpace=wrap;html=1;" vertex="1" parent="FOSeOk8iiJpguLzdHGcU-216">
          <mxGeometry x="51.08510638297861" width="231.38297872340434" height="30" as="geometry">
            <mxRectangle width="231.38297872340434" height="30" as="alternateBounds" />
          </mxGeometry>
        </mxCell>
        <mxCell id="FOSeOk8iiJpguLzdHGcU-222" style="shape=tableRow;horizontal=0;startSize=0;swimlaneHead=0;swimlaneBody=0;fillColor=none;collapsible=0;dropTarget=0;points=[[0,0.5],[1,0.5]];portConstraint=eastwest;top=0;left=0;right=0;bottom=0;" vertex="1" parent="FOSeOk8iiJpguLzdHGcU-118">
          <mxGeometry y="214" width="282.46808510638294" height="30" as="geometry" />
        </mxCell>
        <mxCell id="FOSeOk8iiJpguLzdHGcU-223" value="&lt;b&gt;FK&lt;/b&gt;" style="shape=partialRectangle;connectable=0;fillColor=none;top=0;left=0;bottom=0;right=0;editable=1;overflow=hidden;whiteSpace=wrap;html=1;" vertex="1" parent="FOSeOk8iiJpguLzdHGcU-222">
          <mxGeometry width="51.08510638297861" height="30" as="geometry">
            <mxRectangle width="51.08510638297861" height="30" as="alternateBounds" />
          </mxGeometry>
        </mxCell>
        <mxCell id="FOSeOk8iiJpguLzdHGcU-224" value="post_id" style="shape=partialRectangle;connectable=0;fillColor=none;top=0;left=0;bottom=0;right=0;align=left;spacingLeft=6;overflow=hidden;whiteSpace=wrap;html=1;" vertex="1" parent="FOSeOk8iiJpguLzdHGcU-222">
          <mxGeometry x="51.08510638297861" width="231.38297872340434" height="30" as="geometry">
            <mxRectangle width="231.38297872340434" height="30" as="alternateBounds" />
          </mxGeometry>
        </mxCell>
        <mxCell id="FOSeOk8iiJpguLzdHGcU-225" style="shape=tableRow;horizontal=0;startSize=0;swimlaneHead=0;swimlaneBody=0;fillColor=none;collapsible=0;dropTarget=0;points=[[0,0.5],[1,0.5]];portConstraint=eastwest;top=0;left=0;right=0;bottom=0;" vertex="1" parent="FOSeOk8iiJpguLzdHGcU-118">
          <mxGeometry y="244" width="282.46808510638294" height="30" as="geometry" />
        </mxCell>
        <mxCell id="FOSeOk8iiJpguLzdHGcU-226" style="shape=partialRectangle;connectable=0;fillColor=none;top=0;left=0;bottom=0;right=0;editable=1;overflow=hidden;whiteSpace=wrap;html=1;" vertex="1" parent="FOSeOk8iiJpguLzdHGcU-225">
          <mxGeometry width="51.08510638297861" height="30" as="geometry">
            <mxRectangle width="51.08510638297861" height="30" as="alternateBounds" />
          </mxGeometry>
        </mxCell>
        <mxCell id="FOSeOk8iiJpguLzdHGcU-227" value="comment_id" style="shape=partialRectangle;connectable=0;fillColor=none;top=0;left=0;bottom=0;right=0;align=left;spacingLeft=6;overflow=hidden;whiteSpace=wrap;html=1;" vertex="1" parent="FOSeOk8iiJpguLzdHGcU-225">
          <mxGeometry x="51.08510638297861" width="231.38297872340434" height="30" as="geometry">
            <mxRectangle width="231.38297872340434" height="30" as="alternateBounds" />
          </mxGeometry>
        </mxCell>
        <mxCell id="FOSeOk8iiJpguLzdHGcU-207" style="edgeStyle=orthogonalEdgeStyle;rounded=0;orthogonalLoop=1;jettySize=auto;html=1;entryX=0;entryY=0.5;entryDx=0;entryDy=0;endArrow=ERzeroToMany;endFill=0;startArrow=ERmandOne;startFill=0;" edge="1" parent="FOSeOk8iiJpguLzdHGcU-118" source="FOSeOk8iiJpguLzdHGcU-119" target="FOSeOk8iiJpguLzdHGcU-225">
          <mxGeometry relative="1" as="geometry">
            <mxPoint x="-329" y="283" as="targetPoint" />
          </mxGeometry>
        </mxCell>
        <mxCell id="FOSeOk8iiJpguLzdHGcU-164" value="post_react" style="shape=table;startSize=30;container=1;collapsible=1;childLayout=tableLayout;fixedRows=1;rowLines=0;fontStyle=1;align=center;resizeLast=1;html=1;rounded=1;" vertex="1" parent="1">
          <mxGeometry x="341" y="927" width="180" height="150" as="geometry" />
        </mxCell>
        <mxCell id="FOSeOk8iiJpguLzdHGcU-165" value="" style="shape=tableRow;horizontal=0;startSize=0;swimlaneHead=0;swimlaneBody=0;fillColor=none;collapsible=0;dropTarget=0;points=[[0,0.5],[1,0.5]];portConstraint=eastwest;top=0;left=0;right=0;bottom=1;" vertex="1" parent="FOSeOk8iiJpguLzdHGcU-164">
          <mxGeometry y="30" width="180" height="30" as="geometry" />
        </mxCell>
        <mxCell id="FOSeOk8iiJpguLzdHGcU-166" value="PK, FK" style="shape=partialRectangle;connectable=0;fillColor=none;top=0;left=0;bottom=0;right=0;fontStyle=1;overflow=hidden;whiteSpace=wrap;html=1;" vertex="1" parent="FOSeOk8iiJpguLzdHGcU-165">
          <mxGeometry width="57.02127659574455" height="30" as="geometry">
            <mxRectangle width="57.02127659574455" height="30" as="alternateBounds" />
          </mxGeometry>
        </mxCell>
        <mxCell id="FOSeOk8iiJpguLzdHGcU-167" value="post_id" style="shape=partialRectangle;connectable=0;fillColor=none;top=0;left=0;bottom=0;right=0;align=left;spacingLeft=6;fontStyle=5;overflow=hidden;whiteSpace=wrap;html=1;" vertex="1" parent="FOSeOk8iiJpguLzdHGcU-165">
          <mxGeometry x="57.02127659574455" width="122.97872340425545" height="30" as="geometry">
            <mxRectangle width="122.97872340425545" height="30" as="alternateBounds" />
          </mxGeometry>
        </mxCell>
        <mxCell id="FOSeOk8iiJpguLzdHGcU-168" value="" style="shape=tableRow;horizontal=0;startSize=0;swimlaneHead=0;swimlaneBody=0;fillColor=none;collapsible=0;dropTarget=0;points=[[0,0.5],[1,0.5]];portConstraint=eastwest;top=0;left=0;right=0;bottom=0;" vertex="1" parent="FOSeOk8iiJpguLzdHGcU-164">
          <mxGeometry y="60" width="180" height="30" as="geometry" />
        </mxCell>
        <mxCell id="FOSeOk8iiJpguLzdHGcU-169" value="&lt;b&gt;PK, FK&lt;/b&gt;" style="shape=partialRectangle;connectable=0;fillColor=none;top=0;left=0;bottom=0;right=0;editable=1;overflow=hidden;whiteSpace=wrap;html=1;" vertex="1" parent="FOSeOk8iiJpguLzdHGcU-168">
          <mxGeometry width="57.02127659574455" height="30" as="geometry">
            <mxRectangle width="57.02127659574455" height="30" as="alternateBounds" />
          </mxGeometry>
        </mxCell>
        <mxCell id="FOSeOk8iiJpguLzdHGcU-170" value="&lt;b&gt;&lt;u&gt;account_id&lt;/u&gt;&lt;/b&gt;" style="shape=partialRectangle;connectable=0;fillColor=none;top=0;left=0;bottom=0;right=0;align=left;spacingLeft=6;overflow=hidden;whiteSpace=wrap;html=1;" vertex="1" parent="FOSeOk8iiJpguLzdHGcU-168">
          <mxGeometry x="57.02127659574455" width="122.97872340425545" height="30" as="geometry">
            <mxRectangle width="122.97872340425545" height="30" as="alternateBounds" />
          </mxGeometry>
        </mxCell>
        <mxCell id="FOSeOk8iiJpguLzdHGcU-171" value="" style="shape=tableRow;horizontal=0;startSize=0;swimlaneHead=0;swimlaneBody=0;fillColor=none;collapsible=0;dropTarget=0;points=[[0,0.5],[1,0.5]];portConstraint=eastwest;top=0;left=0;right=0;bottom=0;" vertex="1" parent="FOSeOk8iiJpguLzdHGcU-164">
          <mxGeometry y="90" width="180" height="30" as="geometry" />
        </mxCell>
        <mxCell id="FOSeOk8iiJpguLzdHGcU-172" value="" style="shape=partialRectangle;connectable=0;fillColor=none;top=0;left=0;bottom=0;right=0;editable=1;overflow=hidden;whiteSpace=wrap;html=1;" vertex="1" parent="FOSeOk8iiJpguLzdHGcU-171">
          <mxGeometry width="57.02127659574455" height="30" as="geometry">
            <mxRectangle width="57.02127659574455" height="30" as="alternateBounds" />
          </mxGeometry>
        </mxCell>
        <mxCell id="FOSeOk8iiJpguLzdHGcU-173" value="react_on &lt;b&gt;DATE&lt;/b&gt;" style="shape=partialRectangle;connectable=0;fillColor=none;top=0;left=0;bottom=0;right=0;align=left;spacingLeft=6;overflow=hidden;whiteSpace=wrap;html=1;" vertex="1" parent="FOSeOk8iiJpguLzdHGcU-171">
          <mxGeometry x="57.02127659574455" width="122.97872340425545" height="30" as="geometry">
            <mxRectangle width="122.97872340425545" height="30" as="alternateBounds" />
          </mxGeometry>
        </mxCell>
        <mxCell id="FOSeOk8iiJpguLzdHGcU-174" value="" style="shape=tableRow;horizontal=0;startSize=0;swimlaneHead=0;swimlaneBody=0;fillColor=none;collapsible=0;dropTarget=0;points=[[0,0.5],[1,0.5]];portConstraint=eastwest;top=0;left=0;right=0;bottom=0;" vertex="1" parent="FOSeOk8iiJpguLzdHGcU-164">
          <mxGeometry y="120" width="180" height="30" as="geometry" />
        </mxCell>
        <mxCell id="FOSeOk8iiJpguLzdHGcU-175" value="" style="shape=partialRectangle;connectable=0;fillColor=none;top=0;left=0;bottom=0;right=0;editable=1;overflow=hidden;whiteSpace=wrap;html=1;" vertex="1" parent="FOSeOk8iiJpguLzdHGcU-174">
          <mxGeometry width="57.02127659574455" height="30" as="geometry">
            <mxRectangle width="57.02127659574455" height="30" as="alternateBounds" />
          </mxGeometry>
        </mxCell>
        <mxCell id="FOSeOk8iiJpguLzdHGcU-176" value="react_type" style="shape=partialRectangle;connectable=0;fillColor=none;top=0;left=0;bottom=0;right=0;align=left;spacingLeft=6;overflow=hidden;whiteSpace=wrap;html=1;" vertex="1" parent="FOSeOk8iiJpguLzdHGcU-174">
          <mxGeometry x="57.02127659574455" width="122.97872340425545" height="30" as="geometry">
            <mxRectangle width="122.97872340425545" height="30" as="alternateBounds" />
          </mxGeometry>
        </mxCell>
        <mxCell id="FOSeOk8iiJpguLzdHGcU-215" style="edgeStyle=orthogonalEdgeStyle;rounded=0;orthogonalLoop=1;jettySize=auto;html=1;entryX=1;entryY=0.5;entryDx=0;entryDy=0;startArrow=ERmandOne;startFill=0;endArrow=ERzeroToMany;endFill=0;" edge="1" parent="1" source="FOSeOk8iiJpguLzdHGcU-24" target="FOSeOk8iiJpguLzdHGcU-148">
          <mxGeometry relative="1" as="geometry">
            <Array as="points">
              <mxPoint x="647" y="320" />
              <mxPoint x="647" y="1359" />
            </Array>
          </mxGeometry>
        </mxCell>
        <mxCell id="FOSeOk8iiJpguLzdHGcU-228" style="edgeStyle=orthogonalEdgeStyle;rounded=0;orthogonalLoop=1;jettySize=auto;html=1;entryX=1;entryY=0.5;entryDx=0;entryDy=0;endArrow=ERzeroToOne;endFill=0;startArrow=ERmandOne;startFill=0;" edge="1" parent="1" source="FOSeOk8iiJpguLzdHGcU-81" target="FOSeOk8iiJpguLzdHGcU-216">
          <mxGeometry relative="1" as="geometry">
            <Array as="points">
              <mxPoint x="814" y="758" />
              <mxPoint x="814" y="1389" />
            </Array>
          </mxGeometry>
        </mxCell>
        <mxCell id="FOSeOk8iiJpguLzdHGcU-229" style="edgeStyle=orthogonalEdgeStyle;rounded=0;orthogonalLoop=1;jettySize=auto;html=1;entryX=1;entryY=0.5;entryDx=0;entryDy=0;endArrow=ERzeroToOne;endFill=0;startArrow=ERmandOne;startFill=0;" edge="1" parent="1" source="FOSeOk8iiJpguLzdHGcU-81" target="FOSeOk8iiJpguLzdHGcU-52">
          <mxGeometry relative="1" as="geometry" />
        </mxCell>
        <mxCell id="FOSeOk8iiJpguLzdHGcU-231" style="edgeStyle=orthogonalEdgeStyle;rounded=0;orthogonalLoop=1;jettySize=auto;html=1;entryX=0;entryY=0.5;entryDx=0;entryDy=0;startArrow=ERmandOne;startFill=0;endArrow=ERzeroToMany;endFill=0;" edge="1" parent="1" source="FOSeOk8iiJpguLzdHGcU-98" target="FOSeOk8iiJpguLzdHGcU-222">
          <mxGeometry relative="1" as="geometry">
            <Array as="points">
              <mxPoint x="213" y="692" />
              <mxPoint x="213" y="1419" />
            </Array>
          </mxGeometry>
        </mxCell>
        <mxCell id="FOSeOk8iiJpguLzdHGcU-232" style="edgeStyle=orthogonalEdgeStyle;rounded=0;orthogonalLoop=1;jettySize=auto;html=1;entryX=1;entryY=0.5;entryDx=0;entryDy=0;startArrow=ERmandOne;startFill=0;" edge="1" parent="1" source="FOSeOk8iiJpguLzdHGcU-98" target="FOSeOk8iiJpguLzdHGcU-165">
          <mxGeometry relative="1" as="geometry">
            <Array as="points">
              <mxPoint x="603" y="679" />
              <mxPoint x="603" y="972" />
            </Array>
          </mxGeometry>
        </mxCell>
        <mxCell id="FOSeOk8iiJpguLzdHGcU-233" style="edgeStyle=orthogonalEdgeStyle;rounded=0;orthogonalLoop=1;jettySize=auto;html=1;entryX=0;entryY=0.5;entryDx=0;entryDy=0;endArrow=ERzeroToMany;endFill=0;startArrow=ERmandOne;startFill=0;" edge="1" parent="1" source="FOSeOk8iiJpguLzdHGcU-24" target="FOSeOk8iiJpguLzdHGcU-168">
          <mxGeometry relative="1" as="geometry">
            <Array as="points">
              <mxPoint x="77" y="320" />
              <mxPoint x="77" y="1002" />
            </Array>
          </mxGeometry>
        </mxCell>
        <mxCell id="FOSeOk8iiJpguLzdHGcU-237" value="comments_react" style="shape=table;startSize=30;container=1;collapsible=1;childLayout=tableLayout;fixedRows=1;rowLines=0;fontStyle=1;align=center;resizeLast=1;html=1;rounded=1;" vertex="1" parent="1">
          <mxGeometry x="910" y="1252.36" width="180" height="150" as="geometry" />
        </mxCell>
        <mxCell id="FOSeOk8iiJpguLzdHGcU-238" value="" style="shape=tableRow;horizontal=0;startSize=0;swimlaneHead=0;swimlaneBody=0;fillColor=none;collapsible=0;dropTarget=0;points=[[0,0.5],[1,0.5]];portConstraint=eastwest;top=0;left=0;right=0;bottom=1;" vertex="1" parent="FOSeOk8iiJpguLzdHGcU-237">
          <mxGeometry y="30" width="180" height="30" as="geometry" />
        </mxCell>
        <mxCell id="FOSeOk8iiJpguLzdHGcU-239" value="PK, FK" style="shape=partialRectangle;connectable=0;fillColor=none;top=0;left=0;bottom=0;right=0;fontStyle=1;overflow=hidden;whiteSpace=wrap;html=1;" vertex="1" parent="FOSeOk8iiJpguLzdHGcU-238">
          <mxGeometry width="61.9130434782611" height="30" as="geometry">
            <mxRectangle width="61.9130434782611" height="30" as="alternateBounds" />
          </mxGeometry>
        </mxCell>
        <mxCell id="FOSeOk8iiJpguLzdHGcU-240" value="comment_id" style="shape=partialRectangle;connectable=0;fillColor=none;top=0;left=0;bottom=0;right=0;align=left;spacingLeft=6;fontStyle=5;overflow=hidden;whiteSpace=wrap;html=1;" vertex="1" parent="FOSeOk8iiJpguLzdHGcU-238">
          <mxGeometry x="61.9130434782611" width="118.0869565217389" height="30" as="geometry">
            <mxRectangle width="118.0869565217389" height="30" as="alternateBounds" />
          </mxGeometry>
        </mxCell>
        <mxCell id="FOSeOk8iiJpguLzdHGcU-241" value="" style="shape=tableRow;horizontal=0;startSize=0;swimlaneHead=0;swimlaneBody=0;fillColor=none;collapsible=0;dropTarget=0;points=[[0,0.5],[1,0.5]];portConstraint=eastwest;top=0;left=0;right=0;bottom=0;" vertex="1" parent="FOSeOk8iiJpguLzdHGcU-237">
          <mxGeometry y="60" width="180" height="30" as="geometry" />
        </mxCell>
        <mxCell id="FOSeOk8iiJpguLzdHGcU-242" value="&lt;b&gt;&lt;u&gt;PK, FK&lt;/u&gt;&lt;/b&gt;" style="shape=partialRectangle;connectable=0;fillColor=none;top=0;left=0;bottom=0;right=0;editable=1;overflow=hidden;whiteSpace=wrap;html=1;" vertex="1" parent="FOSeOk8iiJpguLzdHGcU-241">
          <mxGeometry width="61.9130434782611" height="30" as="geometry">
            <mxRectangle width="61.9130434782611" height="30" as="alternateBounds" />
          </mxGeometry>
        </mxCell>
        <mxCell id="FOSeOk8iiJpguLzdHGcU-243" value="&lt;b&gt;&lt;u&gt;account_id&lt;/u&gt;&lt;/b&gt;" style="shape=partialRectangle;connectable=0;fillColor=none;top=0;left=0;bottom=0;right=0;align=left;spacingLeft=6;overflow=hidden;whiteSpace=wrap;html=1;" vertex="1" parent="FOSeOk8iiJpguLzdHGcU-241">
          <mxGeometry x="61.9130434782611" width="118.0869565217389" height="30" as="geometry">
            <mxRectangle width="118.0869565217389" height="30" as="alternateBounds" />
          </mxGeometry>
        </mxCell>
        <mxCell id="FOSeOk8iiJpguLzdHGcU-244" value="" style="shape=tableRow;horizontal=0;startSize=0;swimlaneHead=0;swimlaneBody=0;fillColor=none;collapsible=0;dropTarget=0;points=[[0,0.5],[1,0.5]];portConstraint=eastwest;top=0;left=0;right=0;bottom=0;" vertex="1" parent="FOSeOk8iiJpguLzdHGcU-237">
          <mxGeometry y="90" width="180" height="30" as="geometry" />
        </mxCell>
        <mxCell id="FOSeOk8iiJpguLzdHGcU-245" value="" style="shape=partialRectangle;connectable=0;fillColor=none;top=0;left=0;bottom=0;right=0;editable=1;overflow=hidden;whiteSpace=wrap;html=1;" vertex="1" parent="FOSeOk8iiJpguLzdHGcU-244">
          <mxGeometry width="61.9130434782611" height="30" as="geometry">
            <mxRectangle width="61.9130434782611" height="30" as="alternateBounds" />
          </mxGeometry>
        </mxCell>
        <mxCell id="FOSeOk8iiJpguLzdHGcU-246" value="Row 2" style="shape=partialRectangle;connectable=0;fillColor=none;top=0;left=0;bottom=0;right=0;align=left;spacingLeft=6;overflow=hidden;whiteSpace=wrap;html=1;" vertex="1" parent="FOSeOk8iiJpguLzdHGcU-244">
          <mxGeometry x="61.9130434782611" width="118.0869565217389" height="30" as="geometry">
            <mxRectangle width="118.0869565217389" height="30" as="alternateBounds" />
          </mxGeometry>
        </mxCell>
        <mxCell id="FOSeOk8iiJpguLzdHGcU-247" value="" style="shape=tableRow;horizontal=0;startSize=0;swimlaneHead=0;swimlaneBody=0;fillColor=none;collapsible=0;dropTarget=0;points=[[0,0.5],[1,0.5]];portConstraint=eastwest;top=0;left=0;right=0;bottom=0;" vertex="1" parent="FOSeOk8iiJpguLzdHGcU-237">
          <mxGeometry y="120" width="180" height="30" as="geometry" />
        </mxCell>
        <mxCell id="FOSeOk8iiJpguLzdHGcU-248" value="" style="shape=partialRectangle;connectable=0;fillColor=none;top=0;left=0;bottom=0;right=0;editable=1;overflow=hidden;whiteSpace=wrap;html=1;" vertex="1" parent="FOSeOk8iiJpguLzdHGcU-247">
          <mxGeometry width="61.9130434782611" height="30" as="geometry">
            <mxRectangle width="61.9130434782611" height="30" as="alternateBounds" />
          </mxGeometry>
        </mxCell>
        <mxCell id="FOSeOk8iiJpguLzdHGcU-249" value="Row 3" style="shape=partialRectangle;connectable=0;fillColor=none;top=0;left=0;bottom=0;right=0;align=left;spacingLeft=6;overflow=hidden;whiteSpace=wrap;html=1;" vertex="1" parent="FOSeOk8iiJpguLzdHGcU-247">
          <mxGeometry x="61.9130434782611" width="118.0869565217389" height="30" as="geometry">
            <mxRectangle width="118.0869565217389" height="30" as="alternateBounds" />
          </mxGeometry>
        </mxCell>
        <mxCell id="FOSeOk8iiJpguLzdHGcU-250" style="edgeStyle=orthogonalEdgeStyle;rounded=0;orthogonalLoop=1;jettySize=auto;html=1;endArrow=ERzeroToMany;endFill=0;startArrow=ERmandOne;startFill=0;" edge="1" parent="1" source="FOSeOk8iiJpguLzdHGcU-119" target="FOSeOk8iiJpguLzdHGcU-238">
          <mxGeometry relative="1" as="geometry" />
        </mxCell>
        <mxCell id="FOSeOk8iiJpguLzdHGcU-251" style="edgeStyle=orthogonalEdgeStyle;rounded=0;orthogonalLoop=1;jettySize=auto;html=1;entryX=1;entryY=0.5;entryDx=0;entryDy=0;endArrow=ERzeroToMany;endFill=0;startArrow=ERmandOne;startFill=0;" edge="1" parent="1" source="FOSeOk8iiJpguLzdHGcU-24" target="FOSeOk8iiJpguLzdHGcU-241">
          <mxGeometry relative="1" as="geometry">
            <mxPoint x="994" y="295" as="sourcePoint" />
            <Array as="points">
              <mxPoint x="1352" y="338" />
              <mxPoint x="1352" y="1327" />
            </Array>
          </mxGeometry>
        </mxCell>
        <mxCell id="FOSeOk8iiJpguLzdHGcU-252" value="friend" style="shape=table;startSize=30;container=1;collapsible=1;childLayout=tableLayout;fixedRows=1;rowLines=0;fontStyle=1;align=center;resizeLast=1;html=1;rounded=1;" vertex="1" parent="1">
          <mxGeometry x="1471" y="634" width="180" height="120" as="geometry" />
        </mxCell>
        <mxCell id="FOSeOk8iiJpguLzdHGcU-253" value="" style="shape=tableRow;horizontal=0;startSize=0;swimlaneHead=0;swimlaneBody=0;fillColor=none;collapsible=0;dropTarget=0;points=[[0,0.5],[1,0.5]];portConstraint=eastwest;top=0;left=0;right=0;bottom=1;" vertex="1" parent="FOSeOk8iiJpguLzdHGcU-252">
          <mxGeometry y="30" width="180" height="30" as="geometry" />
        </mxCell>
        <mxCell id="FOSeOk8iiJpguLzdHGcU-254" value="PK, FK" style="shape=partialRectangle;connectable=0;fillColor=none;top=0;left=0;bottom=0;right=0;fontStyle=1;overflow=hidden;whiteSpace=wrap;html=1;" vertex="1" parent="FOSeOk8iiJpguLzdHGcU-253">
          <mxGeometry width="45.5897435897441" height="30" as="geometry">
            <mxRectangle width="45.5897435897441" height="30" as="alternateBounds" />
          </mxGeometry>
        </mxCell>
        <mxCell id="FOSeOk8iiJpguLzdHGcU-255" value="account_id" style="shape=partialRectangle;connectable=0;fillColor=none;top=0;left=0;bottom=0;right=0;align=left;spacingLeft=6;fontStyle=5;overflow=hidden;whiteSpace=wrap;html=1;" vertex="1" parent="FOSeOk8iiJpguLzdHGcU-253">
          <mxGeometry x="45.5897435897441" width="134.4102564102559" height="30" as="geometry">
            <mxRectangle width="134.4102564102559" height="30" as="alternateBounds" />
          </mxGeometry>
        </mxCell>
        <mxCell id="FOSeOk8iiJpguLzdHGcU-256" value="" style="shape=tableRow;horizontal=0;startSize=0;swimlaneHead=0;swimlaneBody=0;fillColor=none;collapsible=0;dropTarget=0;points=[[0,0.5],[1,0.5]];portConstraint=eastwest;top=0;left=0;right=0;bottom=0;" vertex="1" parent="FOSeOk8iiJpguLzdHGcU-252">
          <mxGeometry y="60" width="180" height="30" as="geometry" />
        </mxCell>
        <mxCell id="FOSeOk8iiJpguLzdHGcU-257" value="&lt;b&gt;PK, FK&lt;/b&gt;" style="shape=partialRectangle;connectable=0;fillColor=none;top=0;left=0;bottom=0;right=0;editable=1;overflow=hidden;whiteSpace=wrap;html=1;" vertex="1" parent="FOSeOk8iiJpguLzdHGcU-256">
          <mxGeometry width="45.5897435897441" height="30" as="geometry">
            <mxRectangle width="45.5897435897441" height="30" as="alternateBounds" />
          </mxGeometry>
        </mxCell>
        <mxCell id="FOSeOk8iiJpguLzdHGcU-258" value="&lt;b&gt;&lt;u&gt;friend_id&lt;/u&gt;&lt;/b&gt;" style="shape=partialRectangle;connectable=0;fillColor=none;top=0;left=0;bottom=0;right=0;align=left;spacingLeft=6;overflow=hidden;whiteSpace=wrap;html=1;" vertex="1" parent="FOSeOk8iiJpguLzdHGcU-256">
          <mxGeometry x="45.5897435897441" width="134.4102564102559" height="30" as="geometry">
            <mxRectangle width="134.4102564102559" height="30" as="alternateBounds" />
          </mxGeometry>
        </mxCell>
        <mxCell id="FOSeOk8iiJpguLzdHGcU-259" value="" style="shape=tableRow;horizontal=0;startSize=0;swimlaneHead=0;swimlaneBody=0;fillColor=none;collapsible=0;dropTarget=0;points=[[0,0.5],[1,0.5]];portConstraint=eastwest;top=0;left=0;right=0;bottom=0;" vertex="1" parent="FOSeOk8iiJpguLzdHGcU-252">
          <mxGeometry y="90" width="180" height="30" as="geometry" />
        </mxCell>
        <mxCell id="FOSeOk8iiJpguLzdHGcU-260" value="" style="shape=partialRectangle;connectable=0;fillColor=none;top=0;left=0;bottom=0;right=0;editable=1;overflow=hidden;whiteSpace=wrap;html=1;" vertex="1" parent="FOSeOk8iiJpguLzdHGcU-259">
          <mxGeometry width="45.5897435897441" height="30" as="geometry">
            <mxRectangle width="45.5897435897441" height="30" as="alternateBounds" />
          </mxGeometry>
        </mxCell>
        <mxCell id="FOSeOk8iiJpguLzdHGcU-261" value="friends_on &lt;b&gt;DATE&lt;/b&gt;" style="shape=partialRectangle;connectable=0;fillColor=none;top=0;left=0;bottom=0;right=0;align=left;spacingLeft=6;overflow=hidden;whiteSpace=wrap;html=1;" vertex="1" parent="FOSeOk8iiJpguLzdHGcU-259">
          <mxGeometry x="45.5897435897441" width="134.4102564102559" height="30" as="geometry">
            <mxRectangle width="134.4102564102559" height="30" as="alternateBounds" />
          </mxGeometry>
        </mxCell>
        <mxCell id="FOSeOk8iiJpguLzdHGcU-268" style="edgeStyle=orthogonalEdgeStyle;rounded=0;orthogonalLoop=1;jettySize=auto;html=1;entryX=0;entryY=0.5;entryDx=0;entryDy=0;endArrow=ERzeroToMany;endFill=0;startArrow=ERmandOne;startFill=0;" edge="1" parent="1" source="FOSeOk8iiJpguLzdHGcU-24" target="FOSeOk8iiJpguLzdHGcU-253">
          <mxGeometry relative="1" as="geometry">
            <Array as="points">
              <mxPoint x="1259" y="338" />
              <mxPoint x="1259" y="566" />
              <mxPoint x="1432" y="566" />
              <mxPoint x="1432" y="679" />
            </Array>
          </mxGeometry>
        </mxCell>
        <mxCell id="FOSeOk8iiJpguLzdHGcU-269" style="edgeStyle=orthogonalEdgeStyle;rounded=0;orthogonalLoop=1;jettySize=auto;html=1;entryX=1;entryY=0.5;entryDx=0;entryDy=0;startArrow=ERmandOne;startFill=0;endArrow=ERzeroToMany;endFill=0;" edge="1" parent="1" source="FOSeOk8iiJpguLzdHGcU-24" target="FOSeOk8iiJpguLzdHGcU-256">
          <mxGeometry relative="1" as="geometry">
            <Array as="points">
              <mxPoint x="1764" y="338" />
              <mxPoint x="1764" y="709" />
            </Array>
          </mxGeometry>
        </mxCell>
        <mxCell id="FOSeOk8iiJpguLzdHGcU-270" value="pending_request" style="shape=table;startSize=30;container=1;collapsible=1;childLayout=tableLayout;fixedRows=1;rowLines=0;fontStyle=1;align=center;resizeLast=1;html=1;rounded=1;" vertex="1" parent="1">
          <mxGeometry x="1459" y="417" width="180" height="120" as="geometry" />
        </mxCell>
        <mxCell id="FOSeOk8iiJpguLzdHGcU-271" value="" style="shape=tableRow;horizontal=0;startSize=0;swimlaneHead=0;swimlaneBody=0;fillColor=none;collapsible=0;dropTarget=0;points=[[0,0.5],[1,0.5]];portConstraint=eastwest;top=0;left=0;right=0;bottom=1;" vertex="1" parent="FOSeOk8iiJpguLzdHGcU-270">
          <mxGeometry y="30" width="180" height="30" as="geometry" />
        </mxCell>
        <mxCell id="FOSeOk8iiJpguLzdHGcU-272" value="PK, FK" style="shape=partialRectangle;connectable=0;fillColor=none;top=0;left=0;bottom=0;right=0;fontStyle=1;overflow=hidden;whiteSpace=wrap;html=1;" vertex="1" parent="FOSeOk8iiJpguLzdHGcU-271">
          <mxGeometry width="45.5897435897441" height="30" as="geometry">
            <mxRectangle width="45.5897435897441" height="30" as="alternateBounds" />
          </mxGeometry>
        </mxCell>
        <mxCell id="FOSeOk8iiJpguLzdHGcU-273" value="account_id" style="shape=partialRectangle;connectable=0;fillColor=none;top=0;left=0;bottom=0;right=0;align=left;spacingLeft=6;fontStyle=5;overflow=hidden;whiteSpace=wrap;html=1;" vertex="1" parent="FOSeOk8iiJpguLzdHGcU-271">
          <mxGeometry x="45.5897435897441" width="134.4102564102559" height="30" as="geometry">
            <mxRectangle width="134.4102564102559" height="30" as="alternateBounds" />
          </mxGeometry>
        </mxCell>
        <mxCell id="FOSeOk8iiJpguLzdHGcU-274" value="" style="shape=tableRow;horizontal=0;startSize=0;swimlaneHead=0;swimlaneBody=0;fillColor=none;collapsible=0;dropTarget=0;points=[[0,0.5],[1,0.5]];portConstraint=eastwest;top=0;left=0;right=0;bottom=0;" vertex="1" parent="FOSeOk8iiJpguLzdHGcU-270">
          <mxGeometry y="60" width="180" height="30" as="geometry" />
        </mxCell>
        <mxCell id="FOSeOk8iiJpguLzdHGcU-275" value="&lt;b&gt;FK&lt;/b&gt;" style="shape=partialRectangle;connectable=0;fillColor=none;top=0;left=0;bottom=0;right=0;editable=1;overflow=hidden;whiteSpace=wrap;html=1;" vertex="1" parent="FOSeOk8iiJpguLzdHGcU-274">
          <mxGeometry width="45.5897435897441" height="30" as="geometry">
            <mxRectangle width="45.5897435897441" height="30" as="alternateBounds" />
          </mxGeometry>
        </mxCell>
        <mxCell id="FOSeOk8iiJpguLzdHGcU-276" value="&lt;b&gt;&lt;u&gt;sender_id&lt;/u&gt;&lt;/b&gt;" style="shape=partialRectangle;connectable=0;fillColor=none;top=0;left=0;bottom=0;right=0;align=left;spacingLeft=6;overflow=hidden;whiteSpace=wrap;html=1;" vertex="1" parent="FOSeOk8iiJpguLzdHGcU-274">
          <mxGeometry x="45.5897435897441" width="134.4102564102559" height="30" as="geometry">
            <mxRectangle width="134.4102564102559" height="30" as="alternateBounds" />
          </mxGeometry>
        </mxCell>
        <mxCell id="FOSeOk8iiJpguLzdHGcU-277" value="" style="shape=tableRow;horizontal=0;startSize=0;swimlaneHead=0;swimlaneBody=0;fillColor=none;collapsible=0;dropTarget=0;points=[[0,0.5],[1,0.5]];portConstraint=eastwest;top=0;left=0;right=0;bottom=0;" vertex="1" parent="FOSeOk8iiJpguLzdHGcU-270">
          <mxGeometry y="90" width="180" height="30" as="geometry" />
        </mxCell>
        <mxCell id="FOSeOk8iiJpguLzdHGcU-278" value="" style="shape=partialRectangle;connectable=0;fillColor=none;top=0;left=0;bottom=0;right=0;editable=1;overflow=hidden;whiteSpace=wrap;html=1;" vertex="1" parent="FOSeOk8iiJpguLzdHGcU-277">
          <mxGeometry width="45.5897435897441" height="30" as="geometry">
            <mxRectangle width="45.5897435897441" height="30" as="alternateBounds" />
          </mxGeometry>
        </mxCell>
        <mxCell id="FOSeOk8iiJpguLzdHGcU-279" value="sends_on &lt;b&gt;DATE&lt;/b&gt;" style="shape=partialRectangle;connectable=0;fillColor=none;top=0;left=0;bottom=0;right=0;align=left;spacingLeft=6;overflow=hidden;whiteSpace=wrap;html=1;" vertex="1" parent="FOSeOk8iiJpguLzdHGcU-277">
          <mxGeometry x="45.5897435897441" width="134.4102564102559" height="30" as="geometry">
            <mxRectangle width="134.4102564102559" height="30" as="alternateBounds" />
          </mxGeometry>
        </mxCell>
        <mxCell id="FOSeOk8iiJpguLzdHGcU-280" style="edgeStyle=orthogonalEdgeStyle;rounded=0;orthogonalLoop=1;jettySize=auto;html=1;entryX=0;entryY=0.5;entryDx=0;entryDy=0;startArrow=ERmandOne;startFill=0;endArrow=ERzeroToMany;endFill=0;" edge="1" parent="1" source="FOSeOk8iiJpguLzdHGcU-24" target="FOSeOk8iiJpguLzdHGcU-271">
          <mxGeometry relative="1" as="geometry">
            <Array as="points">
              <mxPoint x="1225" y="338" />
              <mxPoint x="1225" y="462" />
            </Array>
          </mxGeometry>
        </mxCell>
        <mxCell id="FOSeOk8iiJpguLzdHGcU-281" style="edgeStyle=orthogonalEdgeStyle;rounded=0;orthogonalLoop=1;jettySize=auto;html=1;entryX=1;entryY=0.5;entryDx=0;entryDy=0;startArrow=ERmandOne;startFill=0;endArrow=ERmandOne;endFill=0;" edge="1" parent="1" source="FOSeOk8iiJpguLzdHGcU-24" target="FOSeOk8iiJpguLzdHGcU-274">
          <mxGeometry relative="1" as="geometry">
            <Array as="points">
              <mxPoint x="1659" y="338" />
              <mxPoint x="1659" y="492" />
            </Array>
          </mxGeometry>
        </mxCell>
        <mxCell id="FOSeOk8iiJpguLzdHGcU-282" value="notification" style="shape=table;startSize=30;container=1;collapsible=1;childLayout=tableLayout;fixedRows=1;rowLines=0;fontStyle=1;align=center;resizeLast=1;html=1;rounded=1;" vertex="1" parent="1">
          <mxGeometry x="1564" y="898" width="180" height="180" as="geometry" />
        </mxCell>
        <mxCell id="FOSeOk8iiJpguLzdHGcU-283" value="" style="shape=tableRow;horizontal=0;startSize=0;swimlaneHead=0;swimlaneBody=0;fillColor=none;collapsible=0;dropTarget=0;points=[[0,0.5],[1,0.5]];portConstraint=eastwest;top=0;left=0;right=0;bottom=1;" vertex="1" parent="FOSeOk8iiJpguLzdHGcU-282">
          <mxGeometry y="30" width="180" height="30" as="geometry" />
        </mxCell>
        <mxCell id="FOSeOk8iiJpguLzdHGcU-284" value="PK" style="shape=partialRectangle;connectable=0;fillColor=none;top=0;left=0;bottom=0;right=0;fontStyle=1;overflow=hidden;whiteSpace=wrap;html=1;" vertex="1" parent="FOSeOk8iiJpguLzdHGcU-283">
          <mxGeometry width="30" height="30" as="geometry">
            <mxRectangle width="30" height="30" as="alternateBounds" />
          </mxGeometry>
        </mxCell>
        <mxCell id="FOSeOk8iiJpguLzdHGcU-285" value="notification_id" style="shape=partialRectangle;connectable=0;fillColor=none;top=0;left=0;bottom=0;right=0;align=left;spacingLeft=6;fontStyle=5;overflow=hidden;whiteSpace=wrap;html=1;" vertex="1" parent="FOSeOk8iiJpguLzdHGcU-283">
          <mxGeometry x="30" width="150" height="30" as="geometry">
            <mxRectangle width="150" height="30" as="alternateBounds" />
          </mxGeometry>
        </mxCell>
        <mxCell id="FOSeOk8iiJpguLzdHGcU-286" value="" style="shape=tableRow;horizontal=0;startSize=0;swimlaneHead=0;swimlaneBody=0;fillColor=none;collapsible=0;dropTarget=0;points=[[0,0.5],[1,0.5]];portConstraint=eastwest;top=0;left=0;right=0;bottom=0;" vertex="1" parent="FOSeOk8iiJpguLzdHGcU-282">
          <mxGeometry y="60" width="180" height="30" as="geometry" />
        </mxCell>
        <mxCell id="FOSeOk8iiJpguLzdHGcU-287" value="" style="shape=partialRectangle;connectable=0;fillColor=none;top=0;left=0;bottom=0;right=0;editable=1;overflow=hidden;whiteSpace=wrap;html=1;" vertex="1" parent="FOSeOk8iiJpguLzdHGcU-286">
          <mxGeometry width="30" height="30" as="geometry">
            <mxRectangle width="30" height="30" as="alternateBounds" />
          </mxGeometry>
        </mxCell>
        <mxCell id="FOSeOk8iiJpguLzdHGcU-288" value="notification_data" style="shape=partialRectangle;connectable=0;fillColor=none;top=0;left=0;bottom=0;right=0;align=left;spacingLeft=6;overflow=hidden;whiteSpace=wrap;html=1;" vertex="1" parent="FOSeOk8iiJpguLzdHGcU-286">
          <mxGeometry x="30" width="150" height="30" as="geometry">
            <mxRectangle width="150" height="30" as="alternateBounds" />
          </mxGeometry>
        </mxCell>
        <mxCell id="FOSeOk8iiJpguLzdHGcU-289" value="" style="shape=tableRow;horizontal=0;startSize=0;swimlaneHead=0;swimlaneBody=0;fillColor=none;collapsible=0;dropTarget=0;points=[[0,0.5],[1,0.5]];portConstraint=eastwest;top=0;left=0;right=0;bottom=0;" vertex="1" parent="FOSeOk8iiJpguLzdHGcU-282">
          <mxGeometry y="90" width="180" height="30" as="geometry" />
        </mxCell>
        <mxCell id="FOSeOk8iiJpguLzdHGcU-290" value="" style="shape=partialRectangle;connectable=0;fillColor=none;top=0;left=0;bottom=0;right=0;editable=1;overflow=hidden;whiteSpace=wrap;html=1;" vertex="1" parent="FOSeOk8iiJpguLzdHGcU-289">
          <mxGeometry width="30" height="30" as="geometry">
            <mxRectangle width="30" height="30" as="alternateBounds" />
          </mxGeometry>
        </mxCell>
        <mxCell id="FOSeOk8iiJpguLzdHGcU-291" value="notify_on" style="shape=partialRectangle;connectable=0;fillColor=none;top=0;left=0;bottom=0;right=0;align=left;spacingLeft=6;overflow=hidden;whiteSpace=wrap;html=1;" vertex="1" parent="FOSeOk8iiJpguLzdHGcU-289">
          <mxGeometry x="30" width="150" height="30" as="geometry">
            <mxRectangle width="150" height="30" as="alternateBounds" />
          </mxGeometry>
        </mxCell>
        <mxCell id="FOSeOk8iiJpguLzdHGcU-292" value="" style="shape=tableRow;horizontal=0;startSize=0;swimlaneHead=0;swimlaneBody=0;fillColor=none;collapsible=0;dropTarget=0;points=[[0,0.5],[1,0.5]];portConstraint=eastwest;top=0;left=0;right=0;bottom=0;" vertex="1" parent="FOSeOk8iiJpguLzdHGcU-282">
          <mxGeometry y="120" width="180" height="30" as="geometry" />
        </mxCell>
        <mxCell id="FOSeOk8iiJpguLzdHGcU-293" value="" style="shape=partialRectangle;connectable=0;fillColor=none;top=0;left=0;bottom=0;right=0;editable=1;overflow=hidden;whiteSpace=wrap;html=1;" vertex="1" parent="FOSeOk8iiJpguLzdHGcU-292">
          <mxGeometry width="30" height="30" as="geometry">
            <mxRectangle width="30" height="30" as="alternateBounds" />
          </mxGeometry>
        </mxCell>
        <mxCell id="FOSeOk8iiJpguLzdHGcU-294" value="viewed_on" style="shape=partialRectangle;connectable=0;fillColor=none;top=0;left=0;bottom=0;right=0;align=left;spacingLeft=6;overflow=hidden;whiteSpace=wrap;html=1;" vertex="1" parent="FOSeOk8iiJpguLzdHGcU-292">
          <mxGeometry x="30" width="150" height="30" as="geometry">
            <mxRectangle width="150" height="30" as="alternateBounds" />
          </mxGeometry>
        </mxCell>
        <mxCell id="FOSeOk8iiJpguLzdHGcU-295" style="shape=tableRow;horizontal=0;startSize=0;swimlaneHead=0;swimlaneBody=0;fillColor=none;collapsible=0;dropTarget=0;points=[[0,0.5],[1,0.5]];portConstraint=eastwest;top=0;left=0;right=0;bottom=0;" vertex="1" parent="FOSeOk8iiJpguLzdHGcU-282">
          <mxGeometry y="150" width="180" height="30" as="geometry" />
        </mxCell>
        <mxCell id="FOSeOk8iiJpguLzdHGcU-296" style="shape=partialRectangle;connectable=0;fillColor=none;top=0;left=0;bottom=0;right=0;editable=1;overflow=hidden;whiteSpace=wrap;html=1;" vertex="1" parent="FOSeOk8iiJpguLzdHGcU-295">
          <mxGeometry width="30" height="30" as="geometry">
            <mxRectangle width="30" height="30" as="alternateBounds" />
          </mxGeometry>
        </mxCell>
        <mxCell id="FOSeOk8iiJpguLzdHGcU-297" value="account_id" style="shape=partialRectangle;connectable=0;fillColor=none;top=0;left=0;bottom=0;right=0;align=left;spacingLeft=6;overflow=hidden;whiteSpace=wrap;html=1;" vertex="1" parent="FOSeOk8iiJpguLzdHGcU-295">
          <mxGeometry x="30" width="150" height="30" as="geometry">
            <mxRectangle width="150" height="30" as="alternateBounds" />
          </mxGeometry>
        </mxCell>
        <mxCell id="FOSeOk8iiJpguLzdHGcU-298" style="edgeStyle=orthogonalEdgeStyle;rounded=0;orthogonalLoop=1;jettySize=auto;html=1;entryX=0;entryY=0.5;entryDx=0;entryDy=0;startArrow=ERmandOne;startFill=0;endArrow=ERzeroToMany;endFill=0;" edge="1" parent="1">
          <mxGeometry relative="1" as="geometry">
            <mxPoint x="990.5128205128203" y="338" as="sourcePoint" />
            <mxPoint x="1564" y="1062" as="targetPoint" />
            <Array as="points">
              <mxPoint x="1397" y="338" />
              <mxPoint x="1397" y="1062" />
            </Array>
          </mxGeometry>
        </mxCell>
        <mxCell id="FOSeOk8iiJpguLzdHGcU-299" style="edgeStyle=orthogonalEdgeStyle;rounded=0;orthogonalLoop=1;jettySize=auto;html=1;entryX=0;entryY=0.5;entryDx=0;entryDy=0;endArrow=ERzeroToOne;endFill=0;startArrow=ERmandOne;startFill=0;" edge="1" parent="1" source="FOSeOk8iiJpguLzdHGcU-24" target="FOSeOk8iiJpguLzdHGcU-301">
          <mxGeometry relative="1" as="geometry">
            <mxPoint x="619.4210526315792" y="-56.26315789473688" as="targetPoint" />
            <Array as="points">
              <mxPoint x="619" y="320" />
              <mxPoint x="619" y="-59" />
            </Array>
          </mxGeometry>
        </mxCell>
        <mxCell id="FOSeOk8iiJpguLzdHGcU-300" value="other_data" style="shape=table;startSize=30;container=1;collapsible=1;childLayout=tableLayout;fixedRows=1;rowLines=0;fontStyle=1;align=center;resizeLast=1;html=1;" vertex="1" parent="1">
          <mxGeometry x="846.0010526315791" y="-104.00315789473687" width="180" height="150" as="geometry" />
        </mxCell>
        <mxCell id="FOSeOk8iiJpguLzdHGcU-301" value="" style="shape=tableRow;horizontal=0;startSize=0;swimlaneHead=0;swimlaneBody=0;fillColor=none;collapsible=0;dropTarget=0;points=[[0,0.5],[1,0.5]];portConstraint=eastwest;top=0;left=0;right=0;bottom=1;" vertex="1" parent="FOSeOk8iiJpguLzdHGcU-300">
          <mxGeometry y="30" width="180" height="30" as="geometry" />
        </mxCell>
        <mxCell id="FOSeOk8iiJpguLzdHGcU-302" value="PK" style="shape=partialRectangle;connectable=0;fillColor=none;top=0;left=0;bottom=0;right=0;fontStyle=1;overflow=hidden;whiteSpace=wrap;html=1;" vertex="1" parent="FOSeOk8iiJpguLzdHGcU-301">
          <mxGeometry width="30" height="30" as="geometry">
            <mxRectangle width="30" height="30" as="alternateBounds" />
          </mxGeometry>
        </mxCell>
        <mxCell id="FOSeOk8iiJpguLzdHGcU-303" value="account_id" style="shape=partialRectangle;connectable=0;fillColor=none;top=0;left=0;bottom=0;right=0;align=left;spacingLeft=6;fontStyle=5;overflow=hidden;whiteSpace=wrap;html=1;" vertex="1" parent="FOSeOk8iiJpguLzdHGcU-301">
          <mxGeometry x="30" width="150" height="30" as="geometry">
            <mxRectangle width="150" height="30" as="alternateBounds" />
          </mxGeometry>
        </mxCell>
        <mxCell id="FOSeOk8iiJpguLzdHGcU-304" value="" style="shape=tableRow;horizontal=0;startSize=0;swimlaneHead=0;swimlaneBody=0;fillColor=none;collapsible=0;dropTarget=0;points=[[0,0.5],[1,0.5]];portConstraint=eastwest;top=0;left=0;right=0;bottom=0;" vertex="1" parent="FOSeOk8iiJpguLzdHGcU-300">
          <mxGeometry y="60" width="180" height="30" as="geometry" />
        </mxCell>
        <mxCell id="FOSeOk8iiJpguLzdHGcU-305" value="" style="shape=partialRectangle;connectable=0;fillColor=none;top=0;left=0;bottom=0;right=0;editable=1;overflow=hidden;whiteSpace=wrap;html=1;" vertex="1" parent="FOSeOk8iiJpguLzdHGcU-304">
          <mxGeometry width="30" height="30" as="geometry">
            <mxRectangle width="30" height="30" as="alternateBounds" />
          </mxGeometry>
        </mxCell>
        <mxCell id="FOSeOk8iiJpguLzdHGcU-306" value="address" style="shape=partialRectangle;connectable=0;fillColor=none;top=0;left=0;bottom=0;right=0;align=left;spacingLeft=6;overflow=hidden;whiteSpace=wrap;html=1;" vertex="1" parent="FOSeOk8iiJpguLzdHGcU-304">
          <mxGeometry x="30" width="150" height="30" as="geometry">
            <mxRectangle width="150" height="30" as="alternateBounds" />
          </mxGeometry>
        </mxCell>
        <mxCell id="FOSeOk8iiJpguLzdHGcU-307" value="" style="shape=tableRow;horizontal=0;startSize=0;swimlaneHead=0;swimlaneBody=0;fillColor=none;collapsible=0;dropTarget=0;points=[[0,0.5],[1,0.5]];portConstraint=eastwest;top=0;left=0;right=0;bottom=0;" vertex="1" parent="FOSeOk8iiJpguLzdHGcU-300">
          <mxGeometry y="90" width="180" height="30" as="geometry" />
        </mxCell>
        <mxCell id="FOSeOk8iiJpguLzdHGcU-308" value="" style="shape=partialRectangle;connectable=0;fillColor=none;top=0;left=0;bottom=0;right=0;editable=1;overflow=hidden;whiteSpace=wrap;html=1;" vertex="1" parent="FOSeOk8iiJpguLzdHGcU-307">
          <mxGeometry width="30" height="30" as="geometry">
            <mxRectangle width="30" height="30" as="alternateBounds" />
          </mxGeometry>
        </mxCell>
        <mxCell id="FOSeOk8iiJpguLzdHGcU-309" value="Row 2" style="shape=partialRectangle;connectable=0;fillColor=none;top=0;left=0;bottom=0;right=0;align=left;spacingLeft=6;overflow=hidden;whiteSpace=wrap;html=1;" vertex="1" parent="FOSeOk8iiJpguLzdHGcU-307">
          <mxGeometry x="30" width="150" height="30" as="geometry">
            <mxRectangle width="150" height="30" as="alternateBounds" />
          </mxGeometry>
        </mxCell>
        <mxCell id="FOSeOk8iiJpguLzdHGcU-310" value="" style="shape=tableRow;horizontal=0;startSize=0;swimlaneHead=0;swimlaneBody=0;fillColor=none;collapsible=0;dropTarget=0;points=[[0,0.5],[1,0.5]];portConstraint=eastwest;top=0;left=0;right=0;bottom=0;" vertex="1" parent="FOSeOk8iiJpguLzdHGcU-300">
          <mxGeometry y="120" width="180" height="30" as="geometry" />
        </mxCell>
        <mxCell id="FOSeOk8iiJpguLzdHGcU-311" value="" style="shape=partialRectangle;connectable=0;fillColor=none;top=0;left=0;bottom=0;right=0;editable=1;overflow=hidden;whiteSpace=wrap;html=1;" vertex="1" parent="FOSeOk8iiJpguLzdHGcU-310">
          <mxGeometry width="30" height="30" as="geometry">
            <mxRectangle width="30" height="30" as="alternateBounds" />
          </mxGeometry>
        </mxCell>
        <mxCell id="FOSeOk8iiJpguLzdHGcU-312" value="Row 3" style="shape=partialRectangle;connectable=0;fillColor=none;top=0;left=0;bottom=0;right=0;align=left;spacingLeft=6;overflow=hidden;whiteSpace=wrap;html=1;" vertex="1" parent="FOSeOk8iiJpguLzdHGcU-310">
          <mxGeometry x="30" width="150" height="30" as="geometry">
            <mxRectangle width="150" height="30" as="alternateBounds" />
          </mxGeometry>
        </mxCell>
      </root>
    </mxGraphModel>
  </diagram>
</mxfile>
